<?xml version="1.0" encoding="UTF-8"?>
<svg version="1.1" xmlns="http://www.w3.org/2000/svg" width="200" height="200">
<path d="M0 0 C66 0 132 0 200 0 C200 66 200 132 200 200 C134 200 68 200 0 200 C0 134 0 68 0 0 Z " fill="#FDFDFD" transform="translate(0,0)"/>
<path d="M0 0 C7.84941151 -0.18570515 15.6983048 -0.32767658 23.54936409 -0.41449738 C27.19548475 -0.45617821 30.84009837 -0.51266309 34.48535156 -0.60351562 C38.00626183 -0.69071564 41.52572712 -0.73832758 45.04763412 -0.75901794 C47.03884364 -0.78090411 49.02947467 -0.84331731 51.01980591 -0.90637207 C59.84566894 -0.91074048 59.84566894 -0.91074048 63.11264038 1.66682434 C64.69224327 3.70936891 65.87605676 5.67970686 67 8 C67.46712402 8.84908936 67.93424805 9.69817871 68.41552734 10.57299805 C68.7192627 11.29527588 69.02299805 12.01755371 69.3359375 12.76171875 C69.67753906 13.57060547 70.01914063 14.37949219 70.37109375 15.21289062 C70.70238281 16.02951172 71.03367187 16.84613281 71.375 17.6875 C71.72949219 18.51572266 72.08398438 19.34394531 72.44921875 20.19726562 C74.28308527 24.61907892 75 27.02928772 75 32 C67.08 32.495 67.08 32.495 59 33 C64.28 33.33 69.56 33.66 75 34 C74.2510923 48.04847555 72.86852146 62.0064624 71.4375 76 C71.2008927 78.33590924 70.96456253 80.67184657 70.72851562 83.0078125 C70.15553488 88.67220244 69.57914752 94.33623742 69 100 C68.34 100 67.68 100 67 100 C66.76925781 99.07703125 66.53851563 98.1540625 66.30078125 97.203125 C66.14577148 96.5834082 65.99076172 95.96369141 65.83105469 95.32519531 C65.48083452 93.92365509 65.13124064 92.52195824 64.78222656 91.12011719 C63.74317283 86.95120875 62.6905457 82.78622184 61.62109375 78.625 C61.39317139 77.73135742 61.16524902 76.83771484 60.93041992 75.91699219 C60.48253907 74.16146636 60.03097471 72.40687551 59.57543945 70.65332031 C59.37007568 69.84475586 59.16471191 69.03619141 58.953125 68.203125 C58.76911133 67.48801758 58.58509766 66.77291016 58.39550781 66.03613281 C58 64 58 64 58 60 C57.34 60 56.68 60 56 60 C55.7525 60.825 55.505 61.65 55.25 62.5 C52.70374891 69.62950307 48.85903727 76.02524583 45.08154297 82.55322266 C41.8068741 88.25129987 38.86112276 94.08267792 36 100 C35.34 100 34.68 100 34 100 C34.11532699 97.49922528 34.24202925 94.99985002 34.375 92.5 C34.4059375 91.80390625 34.436875 91.1078125 34.46875 90.390625 C34.70523252 86.13393956 35.36462173 82.29166307 36.48291016 78.15673828 C37.50487277 73.89421811 37.95264737 69.53166902 38.5 65.1875 C39.97736036 53.74899283 39.97736036 53.74899283 41.1875 48.1875 C43.23306314 37.3127968 42.96773124 26.55396044 38.875 16.22265625 C38 14 38 14 38 12 C36.97648437 11.9175 35.95296875 11.835 34.8984375 11.75 C28.30131439 10.9242693 21.98837388 8.86276861 15.625 7 C14.32957254 6.62709848 13.03400056 6.25469865 11.73828125 5.8828125 C2.30944549 3.15472274 2.30944549 3.15472274 0 2 C0 1.34 0 0.68 0 0 Z " fill="#070707" transform="translate(73,62)"/>
<path d="M0 0 C6.94170022 -0.05058729 13.88335315 -0.08568579 20.82519531 -0.10986328 C23.18816911 -0.11993924 25.55113039 -0.13360029 27.9140625 -0.15087891 C31.30471888 -0.17505724 34.69521084 -0.18646699 38.0859375 -0.1953125 C39.14743011 -0.20563507 40.20892273 -0.21595764 41.30258179 -0.22659302 C42.77388046 -0.22681961 42.77388046 -0.22681961 44.27490234 -0.22705078 C45.14094086 -0.231492 46.00697937 -0.23593323 46.89926147 -0.24050903 C49 0 49 0 51 2 C51 2.99 51 3.98 51 5 C50.01 5 49.02 5 48 5 C47.90203125 5.98871094 47.8040625 6.97742188 47.703125 7.99609375 C46.6454791 18.44416799 45.45380605 28.8757671 44.20715332 39.30276489 C44.0272376 40.81048551 43.84861001 42.31836039 43.67126465 43.8263855 C43.41874464 45.96936536 43.16123888 48.1116884 42.90234375 50.25390625 C42.75273193 51.50502197 42.60312012 52.7561377 42.44897461 54.04516602 C42 57 42 57 41 59 C30.44 59 19.88 59 9 59 C7.5526011 48.93713142 7.5526011 48.93713142 6.8671875 44.09765625 C6.29821655 40.08325009 5.71876191 36.07055346 5.1328125 32.05859375 C4.85903553 30.14327766 4.58558781 28.22791447 4.3125 26.3125 C4.18125732 25.42997559 4.05001465 24.54745117 3.91479492 23.63818359 C3.08261782 17.7230844 2.84904257 11.97040645 3 6 C1.68 5.67 0.36 5.34 -1 5 C-0.67 3.35 -0.34 1.7 0 0 Z " fill="#232323" transform="translate(53,103)"/>
<path d="M0 0 C0.33 0.99 0.66 1.98 1 3 C4.3 3 7.6 3 11 3 C11.08592955 9.78843417 10.88255428 16.2705236 10 23 C9.34 22.01 8.68 21.02 8 20 C7.814375 21.175625 7.814375 21.175625 7.625 22.375 C7 25 7 25 5 27 C4.75787127 28.98128508 4.75787127 28.98128508 4.875 31.125 C4.91625 32.40375 4.9575 33.6825 5 35 C3.35 35 1.7 35 0 35 C-0.66 33.68 -1.32 32.36 -2 31 C-2.99 33.475 -2.99 33.475 -4 36 C-5.65 36 -7.3 36 -9 36 C-9 33.03 -9 30.06 -9 27 C-8.34 27 -7.68 27 -7 27 C-7 26.34 -7 25.68 -7 25 C-7.99 25 -8.98 25 -10 25 C-10.33 28.63 -10.66 32.26 -11 36 C-12.32 36 -13.64 36 -15 36 C-15 36.66 -15 37.32 -15 38 C-13.68 38 -12.36 38 -11 38 C-11 40.64 -11 43.28 -11 46 C-12.65 46 -14.3 46 -16 46 C-16 44.35 -16 42.7 -16 41 C-16.66 41 -17.32 41 -18 41 C-18 42.65 -18 44.3 -18 46 C-19.65 46 -21.3 46 -23 46 C-25.09379085 36.08790503 -26.01923884 26.06845233 -27 16 C-25.68 15.67 -24.36 15.34 -23 15 C-25.475 14.01 -25.475 14.01 -28 13 C-28 10.36 -28 7.72 -28 5 C-22.33333333 5 -16.66666667 5 -11 5 C-11 6.32 -11 7.64 -11 9 C-10.34 9 -9.68 9 -9 9 C-9 10.32 -9 11.64 -9 13 C-6.36 13 -3.72 13 -1 13 C-1.01160156 12.22914062 -1.02320312 11.45828125 -1.03515625 10.6640625 C-1.04417969 9.66117188 -1.05320312 8.65828125 -1.0625 7.625 C-1.07410156 6.62726563 -1.08570312 5.62953125 -1.09765625 4.6015625 C-1 2 -1 2 0 0 Z " fill="#080808" transform="translate(88,113)"/>
<path d="M0 0 C2 2 2 2 3 6 C5.97 6 8.94 6 12 6 C12 8.31 12 10.62 12 13 C11.34 13 10.68 13 10 13 C10 11.68 10 10.36 10 9 C6.56206661 9.18129815 6.56206661 9.18129815 3 10 C1.48705712 11.93597032 1.48705712 11.93597032 1 14 C0.67 12.68 0.34 11.36 0 10 C-2.31 9.67 -4.62 9.34 -7 9 C-6.67 11.64 -6.34 14.28 -6 17 C-4.35 17.33 -2.7 17.66 -1 18 C-1.33 18.66 -1.66 19.32 -2 20 C-3.32 20 -4.64 20 -6 20 C-5.87882812 20.57363281 -5.75765625 21.14726562 -5.6328125 21.73828125 C-3.78848795 31.08758798 -2.92292646 40.52527626 -2 50 C-0.35 50 1.3 50 3 50 C3 48.35 3 46.7 3 45 C3.66 45 4.32 45 5 45 C5 46.65 5 48.3 5 50 C6.65 50 8.3 50 10 50 C10 47.36 10 44.72 10 42 C8.68 42 7.36 42 6 42 C6 41.34 6 40.68 6 40 C7.32 40 8.64 40 10 40 C10 36.37 10 32.74 10 29 C10.66 28.67 11.32 28.34 12 28 C12.66 28.33 13.32 28.66 14 29 C14 29.66 14 30.32 14 31 C13.34 31 12.68 31 12 31 C12 33.97 12 36.94 12 40 C14.475 39.505 14.475 39.505 17 39 C17.66 36.69 18.32 34.38 19 32 C21 35 21 35 21 39 C22.65 39 24.3 39 26 39 C26 36.69 26 34.38 26 32 C24.35 32 22.7 32 21 32 C21.33 31.01 21.66 30.02 22 29 C23.98 29 25.96 29 28 29 C28.33 26.69 28.66 24.38 29 22 C29.33 22 29.66 22 30 22 C30.22534537 29.31120518 29.97705818 36.43694863 29.0625 43.6875 C28.97564941 44.38230469 28.88879883 45.07710937 28.79931641 45.79296875 C28.13757283 50.72485434 28.13757283 50.72485434 27 53 C16.44 53 5.88 53 -5 53 C-10.328125 16.1875 -10.328125 16.1875 -10 7 C-6.7169902 5.3584951 -3.57454967 6.48111376 0 7 C0 4.69 0 2.38 0 0 Z " fill="#282828" transform="translate(67,109)"/>
<path d="M0 0 C0.2475 0.639375 0.495 1.27875 0.75 1.9375 C1.81562433 4.18741541 1.81562433 4.18741541 4.125 4.75 C4.74375 4.8325 5.3625 4.915 6 5 C6 5.66 6 6.32 6 7 C4.08134221 8.47203437 2.07325381 9.76137504 0.04296875 11.07421875 C-2.78117775 13.73636832 -3.63897329 16.38061351 -5 20 C-8.58317958 20.08720919 -12.16608567 20.14046112 -15.75 20.1875 C-16.76578125 20.21263672 -17.7815625 20.23777344 -18.828125 20.26367188 C-19.8078125 20.27333984 -20.7875 20.28300781 -21.796875 20.29296875 C-22.69760742 20.3086792 -23.59833984 20.32438965 -24.52636719 20.34057617 C-27.45308763 19.93761772 -28.81341349 18.9344597 -31 17 C-30.875 15.3125 -30.875 15.3125 -30 13 C-28.50924507 11.80091452 -27.01641135 10.60397027 -25.5 9.4375 C-22.97931574 7.02184425 -22.14958179 4.25714839 -21 1 C-20.29101562 1.16113281 -19.58203125 1.32226562 -18.8515625 1.48828125 C-15.97132636 2.00514554 -13.29882247 2.16736348 -10.375 2.1875 C-9.43398437 2.20167969 -8.49296875 2.21585937 -7.5234375 2.23046875 C-4.45412073 1.95014415 -3.01322641 0 0 0 Z " fill="#F4F4F4" transform="translate(93,80)"/>
<path d="M0 0 C3.68623011 1.61272567 4.75355 2.630325 7 6 C7.4775733 10.85532856 7.51341394 13.04398784 5.1875 17.375 C2.9883702 20.01395577 1.37724284 21.75498489 -2.0859375 22.37109375 C-6.54279615 22.50038828 -8.3794666 22.49125561 -12 19.625 C-15.5933885 14.90867759 -15.767251 10.81832005 -15 5 C-11.39352517 -1.01079138 -6.40044418 -0.97901531 0 0 Z " fill="#0A0A0A" transform="translate(126,38)"/>
<path d="M0 0 C1.175625 0.0825 2.35125 0.165 3.5625 0.25 C6.07255664 4.01508495 5.5883295 6.64461609 5.1875 10.9375 C5.13078125 11.63939453 5.0740625 12.34128906 5.015625 13.06445312 C4.87445359 14.79380285 4.71978041 16.52204088 4.5625 18.25 C3.9025 17.26 3.2425 16.27 2.5625 15.25 C2.43875 16.03375 2.315 16.8175 2.1875 17.625 C1.5625 20.25 1.5625 20.25 -0.4375 22.25 C-0.67962873 24.23128508 -0.67962873 24.23128508 -0.5625 26.375 C-0.52125 27.65375 -0.48 28.9325 -0.4375 30.25 C-2.0875 30.25 -3.7375 30.25 -5.4375 30.25 C-6.0975 28.93 -6.7575 27.61 -7.4375 26.25 C-8.4275 28.725 -8.4275 28.725 -9.4375 31.25 C-11.0875 31.25 -12.7375 31.25 -14.4375 31.25 C-14.4375 28.28 -14.4375 25.31 -14.4375 22.25 C-13.7775 22.25 -13.1175 22.25 -12.4375 22.25 C-12.4375 21.59 -12.4375 20.93 -12.4375 20.25 C-13.0975 20.25 -13.7575 20.25 -14.4375 20.25 C-14.4375 17.28 -14.4375 14.31 -14.4375 11.25 C-12.1275 11.25 -9.8175 11.25 -7.4375 11.25 C-7.1075 11.91 -6.7775 12.57 -6.4375 13.25 C-6.1075 12.59 -5.7775 11.93 -5.4375 11.25 C-3.4575 11.25 -1.4775 11.25 0.5625 11.25 C0.5625 10.59 0.5625 9.93 0.5625 9.25 C-1.0875 9.25 -2.7375 9.25 -4.4375 9.25 C-4.53515625 3.09765625 -4.53515625 3.09765625 -4.4375 1.25 C-3.4375 0.25 -3.4375 0.25 0 0 Z " fill="#484848" transform="translate(93.4375,117.75)"/>
<path d="M0 0 C1.65 0 3.3 0 5 0 C5.66 1.98 6.32 3.96 7 6 C7.33 4.02 7.66 2.04 8 0 C9.98 0 11.96 0 14 0 C14 2.97 14 5.94 14 9 C12.68 9 11.36 9 10 9 C10 9.66 10 10.32 10 11 C11.32 11 12.64 11 14 11 C14 13.64 14 16.28 14 19 C12.35 19 10.7 19 9 19 C9 17.35 9 15.7 9 14 C8.34 14 7.68 14 7 14 C7 15.65 7 17.3 7 19 C5.35 19 3.7 19 2 19 C0.67611771 12.56971459 -0.24794402 6.5705166 0 0 Z " fill="#4E4E4E" transform="translate(63,140)"/>
<path d="M0 0 C0.2475 0.639375 0.495 1.27875 0.75 1.9375 C1.81562433 4.18741541 1.81562433 4.18741541 4.125 4.75 C4.74375 4.8325 5.3625 4.915 6 5 C6 5.66 6 6.32 6 7 C4.08134221 8.47203437 2.07325381 9.76137504 0.04296875 11.07421875 C-2.78117775 13.73636832 -3.63897329 16.38061351 -5 20 C-8.58317958 20.08720919 -12.16608567 20.14046112 -15.75 20.1875 C-16.76578125 20.21263672 -17.7815625 20.23777344 -18.828125 20.26367188 C-19.8078125 20.27333984 -20.7875 20.28300781 -21.796875 20.29296875 C-22.69760742 20.3086792 -23.59833984 20.32438965 -24.52636719 20.34057617 C-27.45308763 19.93761772 -28.81341349 18.9344597 -31 17 C-30.875 15.3125 -30.875 15.3125 -30 13 C-28.50924507 11.80091452 -27.01641135 10.60397027 -25.5 9.4375 C-22.97931574 7.02184425 -22.14958179 4.25714839 -21 1 C-20.29101562 1.16113281 -19.58203125 1.32226562 -18.8515625 1.48828125 C-15.97132636 2.00514554 -13.29882247 2.16736348 -10.375 2.1875 C-9.43398437 2.20167969 -8.49296875 2.21585937 -7.5234375 2.23046875 C-4.45412073 1.95014415 -3.01322641 0 0 0 Z M-20 4 C-20.37125 4.886875 -20.7425 5.77375 -21.125 6.6875 C-22.78333696 9.61722863 -23.67496841 10.76017002 -26.1875 12.75 C-27.115625 13.4925 -28.04375 14.235 -29 15 C-29 15.66 -29 16.32 -29 17 C-24.63528951 19.18235525 -18.78624746 18.10636105 -14 18 C-12.76443359 18.00966797 -12.76443359 18.00966797 -11.50390625 18.01953125 C-9.17665337 18.00463379 -9.17665337 18.00463379 -6 17 C-4.18317294 14.7794336 -3.22489167 12.63822822 -2 10 C-1.34 9.67 -0.68 9.34 0 9 C0 8.34 0 7.68 0 7 C-0.68964844 6.95101562 -1.37929687 6.90203125 -2.08984375 6.8515625 C-8.23409469 6.36271949 -14.0149077 5.47174401 -20 4 Z " fill="#484848" transform="translate(93,80)"/>
<path d="M0 0 C2 2 2 2 3 6 C5.97 6 8.94 6 12 6 C12 8.31 12 10.62 12 13 C11.34 13 10.68 13 10 13 C10 11.68 10 10.36 10 9 C6.56206661 9.18129815 6.56206661 9.18129815 3 10 C1.48705712 11.93597032 1.48705712 11.93597032 1 14 C0.67 12.68 0.34 11.36 0 10 C-2.31 9.67 -4.62 9.34 -7 9 C-6.67 11.64 -6.34 14.28 -6 17 C-4.35 17.33 -2.7 17.66 -1 18 C-1.33 18.66 -1.66 19.32 -2 20 C-3.32 20 -4.64 20 -6 20 C-5.87882812 20.57363281 -5.75765625 21.14726562 -5.6328125 21.73828125 C-3.78848795 31.08758798 -2.92292646 40.52527626 -2 50 C-2.66 50 -3.32 50 -4 50 C-3.67 50.99 -3.34 51.98 -3 53 C-3.66 53 -4.32 53 -5 53 C-10.33413793 16.35586207 -10.33413793 16.35586207 -10 7 C-6.7169902 5.3584951 -3.57454967 6.48111376 0 7 C0 4.69 0 2.38 0 0 Z " fill="#030303" transform="translate(67,109)"/>
<path d="M0 0 C5.66666667 0 11.33333333 0 17 0 C17 2.97 17 5.94 17 9 C14.03 9.66 11.06 10.32 8 11 C8 13.97 8 16.94 8 20 C6.02 20 4.04 20 2 20 C1.67 17.03 1.34 14.06 1 11 C2.32 10.67 3.64 10.34 5 10 C2.525 9.01 2.525 9.01 0 8 C0 5.36 0 2.72 0 0 Z " fill="#656565" transform="translate(60,118)"/>
<path d="M0 0 C2.64 0 5.28 0 8 0 C8.33 0.99 8.66 1.98 9 3 C9.33 2.34 9.66 1.68 10 1 C12.64 1 15.28 1 18 1 C18.97040422 6.93024803 18.89316269 12.06390334 18 18 C15.36 18 12.72 18 10 18 C10 14.37 10 10.74 10 7 C9.01 7.495 9.01 7.495 8 8 C4.4375 8.125 4.4375 8.125 1 8 C0 7 0 7 -0.0625 3.4375 C-0.041875 2.303125 -0.02125 1.16875 0 0 Z " fill="#4E4E4E" transform="translate(69,108)"/>
<path d="M0 0 C1.98 0 3.96 0 6 0 C6.33 0.66 6.66 1.32 7 2 C7.33 1.34 7.66 0.68 8 0 C9.65 0 11.3 0 13 0 C13.125 7.625 13.125 7.625 12 11 C3.09 11 -5.82 11 -15 11 C-15.33 10.01 -15.66 9.02 -16 8 C-13.69 8 -11.38 8 -9 8 C-9 6.35 -9 4.7 -9 3 C-8.34 3 -7.68 3 -7 3 C-7 4.65 -7 6.3 -7 8 C-5.35 8 -3.7 8 -2 8 C-1.855625 7.4225 -1.71125 6.845 -1.5625 6.25 C-1.04166667 4.16666667 -0.52083333 2.08333333 0 0 Z " fill="#090909" transform="translate(79,151)"/>
<path d="M0 0 C1.175625 0.0825 2.35125 0.165 3.5625 0.25 C6.07255664 4.01508495 5.5883295 6.64461609 5.1875 10.9375 C5.13078125 11.63939453 5.0740625 12.34128906 5.015625 13.06445312 C4.87445359 14.79380285 4.71978041 16.52204088 4.5625 18.25 C1.44259102 15.46466571 1.02433818 13.40654359 0.5625 9.25 C-1.0875 9.25 -2.7375 9.25 -4.4375 9.25 C-4.53515625 3.09765625 -4.53515625 3.09765625 -4.4375 1.25 C-3.4375 0.25 -3.4375 0.25 0 0 Z " fill="#393939" transform="translate(93.4375,117.75)"/>
<path d="M0 0 C2.93797442 0.30847234 5.87532282 0.62160223 8.8125 0.9375 C10.06256836 1.06801758 10.06256836 1.06801758 11.33789062 1.20117188 C12.14033203 1.28818359 12.94277344 1.37519531 13.76953125 1.46484375 C14.50792236 1.543396 15.24631348 1.62194824 16.00708008 1.70288086 C18 2 18 2 21 3 C21 3.66 21 4.32 21 5 C13.52994747 6.15890535 7.97200851 6.04702594 1 3 C0.773125 3.886875 0.54625 4.77375 0.3125 5.6875 C-1.18389846 9.4641247 -2.92491737 11.38617976 -6 14 C-6.66 14 -7.32 14 -8 14 C-8 14.66 -8 15.32 -8 16 C-8.66 16 -9.32 16 -10 16 C-9.875 14.3125 -9.875 14.3125 -9 12 C-7.55538617 10.83802801 -6.10632033 9.67487479 -4.5703125 8.63671875 C-2.15899151 6.12342648 -1.26522208 3.23124082 0 0 Z " fill="#404040" transform="translate(72,81)"/>
<path d="M0 0 C0.33 0.99 0.66 1.98 1 3 C1.99 3.33 2.98 3.66 4 4 C4.99 12.91 5.98 21.82 7 31 C6.34 31 5.68 31 5 31 C5.33 31.99 5.66 32.98 6 34 C5.34 34 4.68 34 4 34 C2.29424625 22.68554124 0.61527517 11.43563159 0 0 Z " fill="#171717" transform="translate(58,128)"/>
<path d="M0 0 C0.99 0.33 1.98 0.66 3 1 C3 1.66 3 2.32 3 3 C2.34 3 1.68 3 1 3 C1 5.97 1 8.94 1 12 C2.65 11.67 4.3 11.34 6 11 C6.66 8.69 7.32 6.38 8 4 C8.33 4 8.66 4 9 4 C9 6.64 9 9.28 9 12 C9.66 12.33 10.32 12.66 11 13 C10.34 13 9.68 13 9 13 C8.67 14.32 8.34 15.64 8 17 C7.67 16.01 7.34 15.02 7 14 C5.02 14 3.04 14 1 14 C1 15.65 1 17.3 1 19 C0.34 18.67 -0.32 18.34 -1 18 C-1 16.68 -1 15.36 -1 14 C-2.32 14 -3.64 14 -5 14 C-5 13.34 -5 12.68 -5 12 C-3.68 12 -2.36 12 -1 12 C-1.01160156 11.21753906 -1.02320312 10.43507812 -1.03515625 9.62890625 C-1.04417969 8.61699219 -1.05320312 7.60507813 -1.0625 6.5625 C-1.07410156 5.55316406 -1.08570312 4.54382813 -1.09765625 3.50390625 C-1 1 -1 1 0 0 Z " fill="#040404" transform="translate(78,137)"/>
<path d="M0 0 C0 0.99 0 1.98 0 3 C-0.33 3.33 -0.66 3.66 -1 4 C0.32 4.66 1.64 5.32 3 6 C-16.8 6 -36.6 6 -57 6 C-57 5.67 -57 5.34 -57 5 C-56.443694 4.99191315 -55.887388 4.98382629 -55.31422424 4.97549438 C-49.48961715 4.88899602 -43.66533281 4.78947646 -37.84106445 4.68261719 C-35.67152353 4.64448988 -33.50192288 4.60960957 -31.33227539 4.578125 C-28.20176953 4.53211986 -25.07166906 4.47418561 -21.94140625 4.4140625 C-20.98166397 4.40251129 -20.02192169 4.39096008 -19.03309631 4.37905884 C-8.72614527 4.44735806 -8.72614527 4.44735806 0 0 Z " fill="#B8B8B8" transform="translate(130,56)"/>
<path d="M0 0 C0.33 0.99 0.66 1.98 1 3 C4.3 3 7.6 3 11 3 C10.67 5.31 10.34 7.62 10 10 C9.67 10 9.34 10 9 10 C9 8.35 9 6.7 9 5 C6.69 5.33 4.38 5.66 2 6 C1.67 8.64 1.34 11.28 1 14 C2.65 14 4.3 14 6 14 C6 14.66 6 15.32 6 16 C4.02 16 2.04 16 0 16 C-0.33 16.99 -0.66 17.98 -1 19 C-1.33 19 -1.66 19 -2 19 C-1.8595017 16.2079699 -1.71284617 13.41650204 -1.5625 10.625 C-1.52318359 9.8309375 -1.48386719 9.036875 -1.44335938 8.21875 C-1.11328125 2.2265625 -1.11328125 2.2265625 0 0 Z " fill="#040404" transform="translate(88,113)"/>
<path d="M0 0 C1.98 0 3.96 0 6 0 C6 2.97 6 5.94 6 9 C4.02 9 2.04 9 0 9 C0 6.03 0 3.06 0 0 Z " fill="#CCCCCC" transform="translate(71,129)"/>
<path d="M0 0 C0.66 0 1.32 0 2 0 C2 1.32 2 2.64 2 4 C4.31 4 6.62 4 9 4 C9 4.99 9 5.98 9 7 C6.69 7 4.38 7 2 7 C2 9.64 2 12.28 2 15 C1.01 15.495 1.01 15.495 0 16 C-0.19672365 14.27185839 -0.38196799 12.54240803 -0.5625 10.8125 C-0.71912109 9.36810547 -0.71912109 9.36810547 -0.87890625 7.89453125 C-0.99758751 5.05766623 -0.67765639 2.74576329 0 0 Z " fill="#101010" transform="translate(77,122)"/>
<path d="M0 0 C0.66 0.33 1.32 0.66 2 1 C2.59355614 3.64860427 2.74209269 6.29197322 3 9 C4.65 9.33 6.3 9.66 8 10 C7.67 10.66 7.34 11.32 7 12 C5.68 12 4.36 12 3 12 C3 12.66 3 13.32 3 14 C2.34 14 1.68 14 1 14 C-0.5883272 9.8306411 -1.30442659 6.46492339 -1 2 C-0.67 1.34 -0.34 0.68 0 0 Z " fill="#0A0A0A" transform="translate(58,117)"/>
<path d="M0 0 C1.98 0 3.96 0 6 0 C6 2.31 6 4.62 6 7 C4.02 7 2.04 7 0 7 C0 4.69 0 2.38 0 0 Z " fill="#F6F6F6" transform="translate(80,119)"/>
<path d="M0 0 C1.98 0 3.96 0 6 0 C6 2.31 6 4.62 6 7 C4.02 7 2.04 7 0 7 C0 4.69 0 2.38 0 0 Z " fill="#F1F1F1" transform="translate(90,119)"/>
<path d="M0 0 C2.31 0 4.62 0 7 0 C7 1.98 7 3.96 7 6 C4.69 6 2.38 6 0 6 C0 4.02 0 2.04 0 0 Z " fill="#F3F3F3" transform="translate(80,109)"/>
<path d="M0 0 C2.31 0 4.62 0 7 0 C7 1.98 7 3.96 7 6 C4.69 6 2.38 6 0 6 C0 4.02 0 2.04 0 0 Z " fill="#F0F0F0" transform="translate(59,109)"/>
<path d="M0 0 C1.66611905 -0.042721 3.33382885 -0.04063832 5 0 C6 1 6 1 6.0625 4.0625 C6.041875 5.031875 6.02125 6.00125 6 7 C4.02 7 2.04 7 0 7 C0 4.69 0 2.38 0 0 Z " fill="#F2F2F2" transform="translate(61,119)"/>
<path d="M0 0 C1.65 0 3.3 0 5 0 C5 2.64 5 5.28 5 8 C3.35 8 1.7 8 0 8 C0 5.36 0 2.72 0 0 Z " fill="#A7A7A7" transform="translate(87,151)"/>
<path d="M0 0 C1.65 0 3.3 0 5 0 C5 2.64 5 5.28 5 8 C3.35 8 1.7 8 0 8 C0 5.36 0 2.72 0 0 Z " fill="#C1C1C1" transform="translate(79,151)"/>
<path d="M0 0 C1.65 0 3.3 0 5 0 C5 2.64 5 5.28 5 8 C3.35 8 1.7 8 0 8 C0 5.36 0 2.72 0 0 Z " fill="#FAFAFA" transform="translate(63,140)"/>
<path d="M0 0 C1.65 0 3.3 0 5 0 C5 2.64 5 5.28 5 8 C3.68 8 2.36 8 1 8 C0.67 5.36 0.34 2.72 0 0 Z " fill="#D6D6D6" transform="translate(64,151)"/>
<path d="M0 0 C0.2475 0.639375 0.495 1.27875 0.75 1.9375 C1.81562433 4.18741541 1.81562433 4.18741541 4.125 4.75 C4.74375 4.8325 5.3625 4.915 6 5 C6 5.66 6 6.32 6 7 C4.35 7.66 2.7 8.32 1 9 C1 8.34 1 7.68 1 7 C-0.98 7 -2.96 7 -5 7 C-5 6.67 -5 6.34 -5 6 C-3.35 6 -1.7 6 0 6 C-0.33 5.34 -0.66 4.68 -1 4 C-3.02463255 3.34786708 -3.02463255 3.34786708 -5 3 C-2.25 0 -2.25 0 0 0 Z " fill="#242424" transform="translate(93,80)"/>
<path d="M0 0 C1.98 0 3.96 0 6 0 C6 1.98 6 3.96 6 6 C4.02 6 2.04 6 0 6 C0 4.02 0 2.04 0 0 Z " fill="#F9F9F9" transform="translate(91,109)"/>
<path d="M0 0 C1.98 0 3.96 0 6 0 C6 1.98 6 3.96 6 6 C4.02 6 2.04 6 0 6 C0 4.02 0 2.04 0 0 Z " fill="#FAFAFA" transform="translate(70,109)"/>
<path d="M0 0 C0.33 0.99 0.66 1.98 1 3 C-2.63423209 5.32590854 -5.77088331 5.16265833 -10 5 C-10 4.34 -10 3.68 -10 3 C-13.3 3 -16.6 3 -20 3 C-20 2.67 -20 2.34 -20 2 C-13.4 2 -6.8 2 0 2 C0 1.34 0 0.68 0 0 Z " fill="#D9D9D9" transform="translate(88,98)"/>
<path d="M0 0 C1.65 0 3.3 0 5 0 C5 2.31 5 4.62 5 7 C3.35 7 1.7 7 0 7 C0 4.69 0 2.38 0 0 Z " fill="#EEEEEE" transform="translate(88,141)"/>
<path d="M0 0 C1.65 0 3.3 0 5 0 C5 2.31 5 4.62 5 7 C3.35 7 1.7 7 0 7 C0 4.69 0 2.38 0 0 Z " fill="#F7F7F7" transform="translate(89,130)"/>
<path d="M0 0 C1.65 0 3.3 0 5 0 C5 2.31 5 4.62 5 7 C3.35 7 1.7 7 0 7 C0 4.69 0 2.38 0 0 Z " fill="#F9F9F9" transform="translate(80,130)"/>
<path d="M0 0 C1.65 0 3.3 0 5 0 C5 2.31 5 4.62 5 7 C3.35 7 1.7 7 0 7 C0 4.69 0 2.38 0 0 Z " fill="#F5F5F5" transform="translate(62,130)"/>
<path d="M0 0 C1.65 0 3.3 0 5 0 C5 2.31 5 4.62 5 7 C3.35 7 1.7 7 0 7 C0 4.69 0 2.38 0 0 Z " fill="#FCFCFC" transform="translate(71,119)"/>
<path d="M0 0 C0.33 0.66 0.66 1.32 1 2 C-0.7980055 5.59601099 -2.970448 8.36135793 -6 11 C-6.66 11 -7.32 11 -8 11 C-8 11.66 -8 12.32 -8 13 C-8.66 13 -9.32 13 -10 13 C-9.74501565 9.55771124 -8.8118705 8.83640913 -6.125 6.5 C-5.320625 5.87544922 -5.320625 5.87544922 -4.5 5.23828125 C-2.6508504 3.71176973 -1.32606035 1.98909053 0 0 Z " fill="#333333" transform="translate(72,84)"/>
<path d="M0 0 C0.33 0 0.66 0 1 0 C1.08121924 1.60332791 1.13929134 3.20784026 1.1875 4.8125 C1.22230469 5.70582031 1.25710937 6.59914062 1.29296875 7.51953125 C0.95081002 10.41647515 0.24606427 11.22555028 -2 13 C-2.12375 12.071875 -2.12375 12.071875 -2.25 11.125 C-2.81258459 8.81562433 -2.81258459 8.81562433 -5.0625 7.75 C-5.701875 7.5025 -6.34125 7.255 -7 7 C-5.02 7 -3.04 7 -1 7 C-0.67 4.69 -0.34 2.38 0 0 Z " fill="#040404" transform="translate(96,131)"/>
<path d="M0 0 C0 0.99 0 1.98 0 3 C-0.33 3.33 -0.66 3.66 -1 4 C0.32 4.66 1.64 5.32 3 6 C-1.95 6 -6.9 6 -12 6 C-11.67 5.34 -11.34 4.68 -11 4 C-9.00390625 3.4375 -9.00390625 3.4375 -6.5625 3 C-2.86159602 2.37748838 -2.86159602 2.37748838 0 0 Z " fill="#D3D3D3" transform="translate(130,56)"/>
<path d="M0 0 C0.99 0 1.98 0 3 0 C3.33 2.64 3.66 5.28 4 8 C3.34 8 2.68 8 2 8 C2.33 8.99 2.66 9.98 3 11 C2.34 11 1.68 11 1 11 C-0.17571451 7.32589215 -0.07366746 3.83070817 0 0 Z " fill="#1D1D1D" transform="translate(61,151)"/>
<path d="M0 0 C0.53560547 0.98226562 0.53560547 0.98226562 1.08203125 1.984375 C2.90299431 4.32434604 2.90299431 4.32434604 6.13671875 4.390625 C7.89435547 4.32101563 7.89435547 4.32101563 9.6875 4.25 C10.86699219 4.21390625 12.04648438 4.1778125 13.26171875 4.140625 C14.16535156 4.09421875 15.06898438 4.0478125 16 4 C16 4.33 16 4.66 16 5 C15.01257813 5.13277344 14.02515625 5.26554687 13.0078125 5.40234375 C11.72648437 5.57894531 10.44515625 5.75554687 9.125 5.9375 C7.21074219 6.19853516 7.21074219 6.19853516 5.2578125 6.46484375 C2.12440546 6.81433227 2.12440546 6.81433227 0 8 C0 5.36 0 2.72 0 0 Z " fill="#454545" transform="translate(116,90)"/>
<path d="M0 0 C1.32 0 2.64 0 4 0 C4 2.31 4 4.62 4 7 C2.68 7 1.36 7 0 7 C0 4.69 0 2.38 0 0 Z " fill="#F9F9F9" transform="translate(80,141)"/>
<path d="M0 0 C1.32 0 2.64 0 4 0 C4 2.31 4 4.62 4 7 C2.68 7 1.36 7 0 7 C0 4.69 0 2.38 0 0 Z " fill="#F7F7F7" transform="translate(72,141)"/>
<path d="M0 0 C1.00289062 0.10183594 2.00578125 0.20367187 3.0390625 0.30859375 C3.80992188 0.39238281 4.58078125 0.47617188 5.375 0.5625 C5.375 1.2225 5.375 1.8825 5.375 2.5625 C1.415 2.5625 -2.545 2.5625 -6.625 2.5625 C-6.955 1.9025 -7.285 1.2425 -7.625 0.5625 C-4.89657939 -0.80171031 -3.01546682 -0.31557211 0 0 Z " fill="#F7F7F7" transform="translate(72.625,100.4375)"/>
<path d="M0 0 C2.31 0 4.62 0 7 0 C7.33 0.99 7.66 1.98 8 3 C4.37 3.33 0.74 3.66 -3 4 C-1.68 3.67 -0.36 3.34 1 3 C0.67 2.01 0.34 1.02 0 0 Z " fill="#6D6D6D" transform="translate(85,83)"/>
<path d="M0 0 C0.66 0 1.32 0 2 0 C1.67 1.98 1.34 3.96 1 6 C0.01 6 -0.98 6 -2 6 C-2 5.34 -2 4.68 -2 4 C-3.32 3.67 -4.64 3.34 -6 3 C-4.35 3 -2.7 3 -1 3 C-0.67 2.01 -0.34 1.02 0 0 Z " fill="#232323" transform="translate(93,156)"/>
<path d="M0 0 C1.65 0 3.3 0 5 0 C4.67 1.65 4.34 3.3 4 5 C2.68 4.67 1.36 4.34 0 4 C0 2.68 0 1.36 0 0 Z " fill="#1C1C1C" transform="translate(52,104)"/>
<path d="M0 0 C0.99 0 1.98 0 3 0 C3 2.31 3 4.62 3 7 C2.01 7 1.02 7 0 7 C0 4.69 0 2.38 0 0 Z " fill="#F6F6F6" transform="translate(73,152)"/>
<path d="M0 0 C1.32 0 2.64 0 4 0 C3.67 1.98 3.34 3.96 3 6 C2.01 6 1.02 6 0 6 C0 4.02 0 2.04 0 0 Z " fill="#F8F8F8" transform="translate(88,152)"/>
<path d="M0 0 C1.485 0.99 1.485 0.99 3 2 C3.1875 5.125 3.1875 5.125 3 8 C2.01 8 1.02 8 0 8 C0 5.36 0 2.72 0 0 Z " fill="#131313" transform="translate(84,151)"/>
<path d="M0 0 C1.65 0 3.3 0 5 0 C4 3 4 3 2 4 C0.86649466 6.01669827 0.86649466 6.01669827 0 8 C0 5.36 0 2.72 0 0 Z " fill="#BFBFBF" transform="translate(63,140)"/>
<path d="M0 0 C2.31 0.33 4.62 0.66 7 1 C4.33333333 2.33333333 1.66666667 3.66666667 -1 5 C-0.67 3.35 -0.34 1.7 0 0 Z " fill="#D8D8D8" transform="translate(73,84)"/>
</svg>
