<?xml version="1.0" encoding="UTF-8"?>
<svg version="1.1" xmlns="http://www.w3.org/2000/svg" width="359" height="159">
<path d="M0 0 C118.47 0 236.94 0 359 0 C359 52.47 359 104.94 359 159 C240.53 159 122.06 159 0 159 C0 106.53 0 54.06 0 0 Z " fill="#020202" transform="translate(0,0)"/>
<path d="M0 0 C12.21 0 24.42 0 37 0 C37.1829437 16.83082024 36.71642138 33.26032656 35 50 C36.32 50 37.64 50 39 50 C39.10957031 49.2471875 39.21914063 48.494375 39.33203125 47.71875 C40.30092771 41.22793145 41.36798865 34.76535443 42.5625 28.3125 C42.68923096 27.61769531 42.81596191 26.92289063 42.9465332 26.20703125 C43.87951849 21.24096301 43.87951849 21.24096301 45 19 C57.58623109 18.32972734 67.30373736 20.22705357 77.96484375 27.046875 C83.26739357 32.1356944 85.30863214 36.52325347 85.56762695 43.96679688 C85.58491716 46.71883261 85.53994432 49.46727228 85.48828125 52.21875 C85.4789409 53.68704009 85.47183057 55.1553459 85.46684265 56.62365723 C85.44786831 60.4643554 85.39885341 64.30408884 85.34332275 68.14440918 C85.28286388 72.76490343 85.26016821 77.38572259 85.23105621 82.00650024 C85.1827792 89.00500182 85.08690324 96.00139206 85 103 C72.79 103 60.58 103 48 103 C47.67 87.82 47.34 72.64 47 57 C40.59628479 55.5527864 40.59628479 55.5527864 37 57 C37 72.18 37 87.36 37 103 C24.79 103 12.58 103 0 103 C0 69.01 0 35.02 0 0 Z " fill="#F4F1EC" transform="translate(22,30)"/>
<path d="M0 0 C12.54 0 25.08 0 38 0 C38.06058594 3.30902344 38.12117188 6.61804687 38.18359375 10.02734375 C38.2453294 13.21771659 38.30873933 16.40805203 38.37231445 19.59838867 C38.41573588 21.82263896 38.45740545 24.04692415 38.49731445 26.27124023 C38.55484306 29.46088195 38.61858684 32.6503468 38.68359375 35.83984375 C38.70030624 36.84087631 38.71701874 37.84190887 38.73423767 38.87327576 C38.7641555 40.25459435 38.7641555 40.25459435 38.79467773 41.66381836 C38.81799416 42.88626503 38.81799416 42.88626503 38.84178162 44.13340759 C38.79913863 46.01409119 38.79913863 46.01409119 40 47 C42.31 46.67 44.62 46.34 47 46 C47.33 30.82 47.66 15.64 48 0 C60.54 0 73.08 0 86 0 C86 27.39 86 54.78 86 83 C73.46 83 60.92 83 48 83 C48 66.125 48 66.125 49 59.5625 C49.2784375 57.67724609 49.2784375 57.67724609 49.5625 55.75390625 C49.706875 54.84511719 49.85125 53.93632813 50 53 C48.68 53 47.36 53 46 53 C46.020625 54.299375 46.04125 55.59875 46.0625 56.9375 C46.08399454 58.29165633 46.07148199 59.64756083 46 61 C45.67 61.33 45.34 61.66 45 62 C44.33910927 65.48572656 43.75766005 68.97626855 43.19335938 72.47851562 C42.46691973 76.81833383 41.52810575 80.85228439 40 85 C28.97211005 85.64588509 18.27610149 83.19984334 9 77 C6.94804948 74.98984847 5.14343693 72.93343377 3.375 70.671875 C2.0859643 68.87350823 2.0859643 68.87350823 0 68 C0 45.56 0 23.12 0 0 Z " fill="#EEEBE7" transform="translate(249,50)"/>
<path d="M0 0 C12.21 0 24.42 0 37 0 C37.06058594 3.30902344 37.12117188 6.61804687 37.18359375 10.02734375 C37.2453294 13.21771659 37.30873933 16.40805203 37.37231445 19.59838867 C37.41573588 21.82263896 37.45740545 24.04692415 37.49731445 26.27124023 C37.55484306 29.46088195 37.61858684 32.6503468 37.68359375 35.83984375 C37.70030624 36.84087631 37.71701874 37.84190887 37.73423767 38.87327576 C37.7641555 40.25459435 37.7641555 40.25459435 37.79467773 41.66381836 C37.81799416 42.88626503 37.81799416 42.88626503 37.84178162 44.13340759 C37.79913863 46.01409119 37.79913863 46.01409119 39 47 C43.455 46.505 43.455 46.505 48 46 C48 30.82 48 15.64 48 0 C60.21 0 72.42 0 85 0 C85 27.39 85 54.78 85 83 C72.79 83 60.58 83 48 83 C48 66.89527027 48 66.89527027 48.5 60.125 C48.54769531 59.42503906 48.59539062 58.72507813 48.64453125 58.00390625 C48.75879587 56.33564274 48.87870783 54.66776729 49 53 C48.01 53 47.02 53 46 53 C45.89042969 53.69222656 45.78085938 54.38445312 45.66796875 55.09765625 C44.70141738 61.06198543 43.65441001 67.00692958 42.5 72.9375 C42.2628125 74.16339844 42.025625 75.38929687 41.78125 76.65234375 C41.09113927 79.60946822 40.22060558 82.2273313 39 85 C28.10220463 85.76475757 16.65170832 83.16277939 7.8046875 76.5859375 C4.61482941 73.78272888 1.91571417 70.83142833 0 67 C-0.09175034 64.87583 -0.11750694 62.74870545 -0.11352539 60.62255859 C-0.11367142 59.96877731 -0.11381744 59.31499603 -0.1139679 58.6414032 C-0.11327036 56.47704773 -0.1054854 54.31277796 -0.09765625 52.1484375 C-0.09579151 50.64913988 -0.09436787 49.14984166 -0.09336853 47.65054321 C-0.08954779 43.70168378 -0.07972128 39.75286104 -0.06866455 35.80401611 C-0.05664385 31.06750242 -0.05204608 26.33097648 -0.04621124 21.5944519 C-0.03650929 14.39627574 -0.01734966 7.19818011 0 0 Z " fill="#F2EFEA" transform="translate(114,50)"/>
<path d="M0 0 C12.54 0 25.08 0 38 0 C38 33.99 38 67.98 38 103 C25.46 103 12.92 103 0 103 C0 69.01 0 35.02 0 0 Z " fill="#EFECE7" transform="translate(205,30)"/>
<path d="M0 0 C0.66 0 1.32 0 2 0 C2 8.58 2 17.16 2 26 C-0.1447345 22.78289825 -0.29224582 21.66691508 -0.44921875 17.9296875 C-0.49240234 16.95128906 -0.53558594 15.97289062 -0.58007812 14.96484375 C-0.61552734 13.94519531 -0.65097656 12.92554688 -0.6875 11.875 C-0.73455078 10.84761719 -0.78160156 9.82023437 -0.83007812 8.76171875 C-1.05553241 3.16601741 -1.05553241 3.16601741 -1 1 C-0.67 0.67 -0.34 0.34 0 0 Z " fill="#DBDAD7" transform="translate(57,30)"/>
<path d="M0 0 C0.33 0 0.66 0 1 0 C1.33 2.31 1.66 4.62 2 7 C2.99 6.34 3.98 5.68 5 5 C4.67 7.97 4.34 10.94 4 14 C2.68 14 1.36 14 0 14 C0 9.38 0 4.76 0 0 Z " fill="#403F3E" transform="translate(57,66)"/>
</svg>
