<?xml version="1.0" encoding="UTF-8"?>
<svg version="1.1" xmlns="http://www.w3.org/2000/svg" width="1000" height="1000">
<path d="M0 0 C330 0 660 0 1000 0 C1000 330 1000 660 1000 1000 C670 1000 340 1000 0 1000 C0 670 0 340 0 0 Z " fill="#FEFEFE" transform="translate(0,0)"/>
<path d="M0 0 C21.20214376 53.91561083 21.20214376 53.91561083 30.375 77.4375 C30.85137405 78.65898743 30.85137405 78.65898743 31.33737183 79.90515137 C33.88877824 86.44806653 36.43844532 92.99165906 38.98773193 99.53540039 C41.00962891 104.72530955 43.03233915 109.9149006 45.05575562 115.10421753 C46.04962594 117.65446546 47.04209067 120.20525712 48.03442383 122.75610352 C51.43748291 131.49468158 54.87916879 140.21606267 58.375 148.91796875 C59.43064082 151.55523201 60.48572883 154.1927159 61.54074097 156.83023071 C62.54313135 159.32676088 63.55570786 161.81899693 64.56860352 164.3112793 C65.17253685 165.81929892 65.77599822 167.32750767 66.37890625 168.8359375 C66.80254456 169.86408821 66.80254456 169.86408821 67.23474121 170.91300964 C69.11373605 175.65879185 69.11373605 175.65879185 68 179 C43.76842657 165.52146115 43.76842657 165.52146115 33.5625 159.5 C32.88566162 159.10071289 32.20882324 158.70142578 31.51147461 158.29003906 C28.60749089 156.56921361 25.7204103 154.82746509 22.84765625 153.0546875 C21.49994141 152.22324219 21.49994141 152.22324219 20.125 151.375 C19.01511719 150.67503906 19.01511719 150.67503906 17.8828125 149.9609375 C15.9069588 148.77270498 15.9069588 148.77270498 13 149 C12.64921387 149.63164063 12.29842773 150.26328125 11.93701172 150.9140625 C4.29014861 164.66702135 -3.48090039 178.33369051 -11.4375 191.91015625 C-15.1321331 198.21570419 -18.78852681 204.54294436 -22.4375 210.875 C-23.37130493 212.49523071 -23.37130493 212.49523071 -24.32397461 214.14819336 C-25.58576826 216.33796334 -26.84740534 218.52782355 -28.10888672 220.71777344 C-31.23680148 226.14659942 -34.36858448 231.57319281 -37.5 237 C-38.75001879 239.16665583 -40.00001878 241.3333225 -41.25 243.5 C-63.75 282.5 -63.75 282.5 -65.62768555 285.75439453 C-66.86903475 287.90623914 -68.11008629 290.05825548 -69.35083008 292.21044922 C-72.25980003 297.25552062 -75.17160523 302.29888421 -78.09432983 307.33599854 C-79.1274294 309.11680001 -80.15956171 310.89815858 -81.19140625 312.6796875 C-82.48506088 314.91257083 -83.78052164 317.1444091 -85.078125 319.375 C-86.73672968 322.24019402 -88.37143182 325.11766325 -90 328 C-90.42974121 328.72541992 -90.85948242 329.45083984 -91.30224609 330.19824219 C-94.10403754 335.20911469 -94.506221 339.31386476 -94.25 345 C-94.23195313 345.77472656 -94.21390625 346.54945313 -94.1953125 347.34765625 C-94.14877757 349.23232089 -94.07705896 351.11633649 -94 353 C-96.2875096 350.07024778 -98.19978792 347.05999635 -100.046875 343.8359375 C-100.63662109 342.80984375 -101.22636719 341.78375 -101.83398438 340.7265625 C-102.46626953 339.62054687 -103.09855469 338.51453125 -103.75 337.375 C-104.41964393 336.20817378 -105.08957084 335.04150991 -105.75976562 333.875 C-107.15148769 331.45212488 -108.54199104 329.02855654 -109.93164062 326.60449219 C-113.1097103 321.06309973 -116.30577973 315.53209253 -119.5 310 C-120.75008468 307.83338219 -122.0000844 305.66671536 -123.25 303.5 C-123.86875 302.4275 -124.4875 301.355 -125.125 300.25 C-137 279.66666667 -148.875 259.08333333 -160.75 238.5 C-161.36931396 237.42669434 -161.98862793 236.35338867 -162.62670898 235.24755859 C-163.8716141 233.08937693 -165.11592142 230.93085033 -166.35961914 228.77197266 C-169.55765711 223.22244851 -172.76711171 217.68002211 -175.99609375 212.1484375 C-179.70443548 205.78828761 -183.36820076 199.40413142 -187 193 C-187.70769531 191.76540039 -187.70769531 191.76540039 -188.4296875 190.50585938 C-193.07470265 182.32077965 -197.3713576 174.65744598 -195 165 C-192.85652503 159.3579048 -189.99687135 154.22814852 -187 149 C-186.46890625 148.06349609 -185.9378125 147.12699219 -185.390625 146.16210938 C-181.63505131 139.55179217 -177.82049839 132.97695883 -173.98779297 126.41113281 C-170.80633739 120.95162688 -167.65397871 115.47540987 -164.5 110 C-160.98493142 103.90066301 -157.46847479 97.80221517 -153.93145752 91.71557617 C-152.90584372 89.95024789 -151.88145336 88.18421529 -150.85742188 86.41796875 C-149.57728534 84.2108368 -148.29489334 82.00501077 -147.00976562 79.80078125 C-143.43924046 73.63817318 -140.095662 67.4148503 -137 61 C-149.73287311 53.55368247 -162.47824411 46.12941705 -175.25 38.75 C-176.36165527 38.10667725 -177.47331055 37.46335449 -178.61865234 36.80053711 C-180.17640381 35.90153687 -180.17640381 35.90153687 -181.765625 34.984375 C-182.68118164 34.45553711 -183.59673828 33.92669922 -184.54003906 33.38183594 C-186.66695467 32.18708183 -188.80666356 31.06657866 -191 30 C-191 29.34 -191 28.68 -191 28 C-190.31824707 27.89977539 -189.63649414 27.79955078 -188.93408203 27.69628906 C-175.0965178 25.65979121 -161.26641082 23.58457809 -147.44628906 21.43286133 C-139.52175588 20.20920244 -131.58410027 19.12437352 -123.63476562 18.07617188 C-118.28113392 17.35526341 -112.98605596 16.48706474 -107.6875 15.4375 C-101.04268077 14.1302114 -94.45114794 13.29267583 -87.71875 12.625 C-83.75541321 12.16123393 -79.86992009 11.41973581 -75.953125 10.66015625 C-65.1079267 8.56428366 -54.17792158 7.03147573 -43.25 5.4375 C-40.13490871 4.98090708 -37.01995644 4.52339125 -33.90515137 4.06484985 C-31.91611429 3.77205184 -29.92694032 3.4801821 -27.93762207 3.18930054 C-22.13436007 2.3355815 -16.35180433 1.41508865 -10.58886719 0.31665039 C-7.03965693 -0.1174618 -3.57515633 -0.04761506 0 0 Z " fill="#010101" transform="translate(318,435)"/>
<path d="M0 0 C26.03438171 -0.11687311 52.06872402 -0.20500783 78.10331535 -0.25906086 C90.19201306 -0.28482726 102.28054763 -0.31994815 114.36914062 -0.37719727 C124.90725856 -0.4270798 135.44525834 -0.45930238 145.98349106 -0.47044247 C151.56191585 -0.47695294 157.14000263 -0.49222227 162.71831894 -0.52865028 C167.97308239 -0.56268612 173.22736983 -0.57303752 178.48223305 -0.56553841 C180.40667753 -0.56690955 182.33113856 -0.57679656 184.25548744 -0.59602737 C195.65005922 -0.70427523 204.29770747 -0.48932114 213.48486328 7.03515625 C218.46775387 12.94122583 222.23674754 19.19541976 225.875 26 C227.10146562 28.24165139 228.32933305 30.48253638 229.55859375 32.72265625 C230.14882324 33.80434082 230.73905273 34.88602539 231.34716797 36.00048828 C233.47222444 39.85697924 235.68372779 43.65521462 237.9375 47.4375 C242.07444641 54.40693477 246.14122964 61.41502591 250.1875 68.4375 C251.12819336 70.07005737 251.12819336 70.07005737 252.08789062 71.7355957 C253.38494248 73.98720282 254.68181427 76.23891367 255.97851562 78.49072266 C259.12391693 83.9521609 262.27446737 89.41062959 265.42446899 94.86941528 C267.03185937 97.65502595 268.63896507 100.44080084 270.24609375 103.2265625 C270.77904053 104.15033691 271.3119873 105.07411133 271.86108398 106.02587891 C272.42484741 107.00306885 272.42484741 107.00306885 273 108 C277.00162756 107.40978811 279.85292779 106.15443329 283.33203125 104.11328125 C284.36730957 103.5107251 285.40258789 102.90816895 286.46923828 102.28735352 C288.12415283 101.30980103 288.12415283 101.30980103 289.8125 100.3125 C291.54679882 99.29957607 293.28109909 98.28665461 295.01550293 97.27391052 C296.809211 96.22487586 298.60090951 95.17248471 300.39208984 94.11914062 C303.93957473 92.03364006 307.49417113 89.96051592 311.05078125 87.890625 C316.70393612 84.59957682 322.35336089 81.30221368 328 78 C329.12645382 81.37936145 328.94822282 81.79487954 327.64208984 84.91650391 C327.3212442 85.69859222 327.00039856 86.48068054 326.66983032 87.28646851 C326.31214569 88.13294952 325.95446106 88.97943054 325.5859375 89.8515625 C324.83475723 91.67705737 324.08445948 93.50291558 323.33496094 95.32910156 C322.7511969 96.74092712 322.7511969 96.74092712 322.15563965 98.18127441 C320.35747854 102.56717683 318.6347811 106.98170217 316.9140625 111.3984375 C316.21359911 113.19012663 315.51307718 114.98179287 314.8125 116.7734375 C314.08332694 118.6406225 313.35416045 120.50781007 312.625 122.375 C311.84122901 124.38024084 311.05737281 126.38544839 310.2734375 128.390625 C308.65234298 132.53730746 307.031607 136.68412977 305.41113281 140.83105469 C301.98102172 149.60815436 298.54639762 158.3834875 295.11190796 167.15887451 C293.62813667 170.95017791 292.14463035 174.74158496 290.66111755 178.5329895 C287.55574984 186.46932944 284.44996169 194.40550462 281.34353638 202.34143066 C279.72265886 206.4823017 278.101925 210.62322896 276.48120117 214.76416016 C275.71760059 216.71503442 274.95393168 218.66588193 274.19018555 220.61669922 C269.44454192 232.738435 264.71253033 244.86535048 260 257 C251.47613299 256.63282599 243.35996402 256.0276252 234.98828125 254.29760742 C227.70858348 252.84460323 220.35967132 251.94446986 213 251 C197.37586019 248.98811214 197.37586019 248.98811214 190 247.5 C181.29895114 245.75412794 172.51448935 244.69724473 163.71704102 243.55517578 C152.11109901 242.04025845 140.54935288 240.29393703 128.98852539 238.4699707 C121.96983408 237.36622258 114.94865748 236.2787018 107.91796875 235.25390625 C98.75908835 233.91815725 89.65848468 232.44518952 80.578125 230.6484375 C76.72356175 229.94990311 72.89018715 229.45414079 69 229 C72.41487186 225.10986246 76.25016648 223.01744206 80.75 220.625 C88.47837626 216.42832605 96.10022064 212.07163371 103.6875 207.625 C104.70231445 207.03025879 105.71712891 206.43551758 106.76269531 205.82275391 C107.73174805 205.25476074 108.70080078 204.68676758 109.69921875 204.1015625 C110.61364746 203.56692383 111.52807617 203.03228516 112.47021484 202.48144531 C114.04627336 201.5585035 115.61995809 200.63148087 117.18994141 199.69824219 C121.77979587 197 121.77979587 197 124 197 C113.62273883 178.12943456 113.62273883 178.12943456 102.84130859 159.48876953 C99.08635193 153.17146343 95.41585627 146.80686138 91.75 140.4375 C86.88240137 131.98324975 81.98945702 123.54478623 77.0625 115.125 C71.32230712 105.30870924 65.66676575 95.44534352 60.03369141 85.56738281 C54.30200123 75.51772617 48.52897214 65.4923555 42.73828125 55.4765625 C40.16209466 51.01931846 37.59846376 46.55506622 35.04296875 42.0859375 C23.70184223 18.62120506 23.70184223 18.62120506 4.6875 2.75 C3.80449219 2.41484375 2.92148437 2.0796875 2.01171875 1.734375 C1.34785156 1.49203125 0.68398438 1.2496875 0 1 C0 0.67 0 0.34 0 0 Z " fill="#010101" transform="translate(407,145)"/>
<path d="M0 0 C0.33 0 0.66 0 1 0 C1 20.79 1 41.58 1 63 C28.84264179 62.95969115 56.68509103 62.90291136 84.52762318 62.81609726 C97.45583615 62.77631405 110.38398831 62.74391785 123.31225586 62.72900391 C134.58255404 62.71598374 145.85271839 62.68900954 157.1229412 62.64538693 C163.08861558 62.62278059 169.05412494 62.60708884 175.01984596 62.60811615 C180.63988539 62.60886323 186.25956011 62.59089255 191.87950516 62.55883217 C193.93732858 62.55034348 195.99519295 62.5485762 198.0530262 62.55419731 C211.11069635 62.58510247 222.19047903 62.18017803 233 54 C231.69583115 57.45493703 230.18492401 60.57769293 228.3046875 63.75390625 C227.49076538 65.13715088 227.49076538 65.13715088 226.66040039 66.54833984 C225.7766272 68.04034912 225.7766272 68.04034912 224.875 69.5625 C219.5423014 78.6321881 214.2709109 87.7334318 209.0625 96.875 C207.71261354 99.24240091 206.36228233 101.60954782 205.01171875 103.9765625 C204.67804291 104.56138901 204.34436707 105.14621552 204.00057983 105.74876404 C195.20391034 121.15873207 186.29732221 136.50466358 177.33935547 151.82128906 C172.84472474 159.52025003 168.41410802 167.25474219 164 175 C158.83285262 184.06580621 153.63363486 193.11181294 148.375 202.125 C147.81941406 203.07761719 147.26382812 204.03023437 146.69140625 205.01171875 C131.68391206 230.68147158 131.68391206 230.68147158 121.25636292 234.42676544 C112.01233374 236.77523383 101.68513959 235.70550629 92.234375 235.5859375 C89.62836691 235.57473315 87.0223461 235.56619883 84.4163208 235.56021118 C78.28590375 235.54166537 72.15613934 235.49257074 66.02600789 235.43211424 C58.35209991 235.35809811 50.67808284 235.32554526 43.00390625 235.29296875 C29.33543091 235.23476603 15.6683768 235.11453947 2 235 C2 256.12 2 277.24 2 299 C-2.062416 295.7500672 -4.93335094 292.80839697 -8 288.75 C-8.96744487 287.49378547 -9.93625087 286.23861829 -10.90625 284.984375 C-11.41027344 284.33146484 -11.91429687 283.67855469 -12.43359375 283.00585938 C-15.07089347 279.62866884 -17.78698889 276.31643885 -20.5 273 C-25.00830733 267.47719107 -29.44843841 261.90814029 -33.8359375 256.2890625 C-37.33776247 251.81563292 -40.90811164 247.40132798 -44.5 243 C-49.00759973 237.47660315 -53.44842642 231.90815564 -57.8359375 226.2890625 C-61.33776247 221.81563292 -64.90811164 217.40132798 -68.5 213 C-73.00759973 207.47660315 -77.44842642 201.90815564 -81.8359375 196.2890625 C-85.3377631 191.81563211 -88.90814394 187.40135526 -92.5 183 C-97.11573351 177.34332349 -101.67943632 171.65104062 -106.16333008 165.88916016 C-108.22658493 163.24018488 -110.31080342 160.6270359 -112.4609375 158.046875 C-113.56308594 156.72429687 -113.56308594 156.72429687 -114.6875 155.375 C-115.33074219 154.61960937 -115.97398437 153.86421875 -116.63671875 153.0859375 C-118 151 -118 151 -118 147 C-116.98120117 145.29931641 -116.98120117 145.29931641 -115.54296875 143.6015625 C-115.01316406 142.96476563 -114.48335937 142.32796875 -113.9375 141.671875 C-113.07125 140.65867187 -113.07125 140.65867187 -112.1875 139.625 C-110.98203994 138.18054894 -109.7776295 136.73522134 -108.57421875 135.2890625 C-107.66615479 134.2047998 -107.66615479 134.2047998 -106.73974609 133.09863281 C-104.26473057 130.11305416 -101.87858568 127.06254527 -99.5 124 C-95.01964069 118.2586423 -90.44040154 112.60302724 -85.8359375 106.9609375 C-82.34469917 102.67548382 -78.90181112 98.35670547 -75.5 94 C-71.0179989 88.25989332 -66.44043443 82.60306754 -61.8359375 76.9609375 C-58.34469917 72.67548382 -54.90181112 68.35670547 -51.5 64 C-47.0179989 58.25989332 -42.44043443 52.60306754 -37.8359375 46.9609375 C-34.34469821 42.67548263 -30.90185928 38.35666894 -27.5 34 C-22.42941449 27.50741558 -17.24086744 21.11493539 -12.03515625 14.73046875 C-8.79144318 10.75060823 -5.58488961 6.74232957 -2.390625 2.72265625 C-1 1 -1 1 0 0 Z " fill="#010101" transform="translate(641,572)"/>
<path d="M0 0 C2.85419655 -0.36914349 2.85419655 -0.36914349 6.58047485 -0.36076355 C7.26248459 -0.3633316 7.94449432 -0.36589966 8.64717102 -0.36854553 C10.95072589 -0.37353023 13.25363336 -0.35691113 15.55712891 -0.34057617 C17.22942776 -0.33965764 18.90172778 -0.34005684 20.57402611 -0.34167194 C25.06374653 -0.34235091 29.55322845 -0.32492843 34.04289246 -0.30384064 C38.25150325 -0.28679102 42.46005521 -0.28595322 46.66870117 -0.28381348 C58.9874992 -0.268054 71.30625259 -0.22617076 83.625 -0.1875 C124.895625 -0.0946875 124.895625 -0.0946875 167 0 C167 57.09 167 114.18 167 173 C111.31016294 173.24181821 111.31016294 173.24181821 87.9609375 173.29296875 C82.62597549 173.30474981 77.29101446 173.31683754 71.95605469 173.32958984 C70.95316001 173.33196358 70.95316001 173.33196358 69.93000484 173.33438528 C59.15370808 173.36043973 48.37760456 173.40771942 37.60142216 173.46291678 C26.53177247 173.51914196 15.462229 173.55192837 4.3924439 173.56453097 C-1.82101415 173.57234079 -8.03403494 173.59064617 -14.2473526 173.63438034 C-20.10132532 173.67524948 -25.95468264 173.68763988 -31.80878448 173.67864609 C-33.9517044 173.68029031 -36.09464591 173.69213928 -38.23744202 173.71523285 C-59.89925175 173.93714413 -59.89925175 173.93714413 -69 167 C-76.37337418 159.60497431 -79.2598931 152.31800118 -79.49609375 142.00390625 C-78.09599155 133.52612205 -72.79839722 125.80542097 -68.625 118.4375 C-68.01068115 117.34687256 -67.3963623 116.25624512 -66.76342773 115.13256836 C-61.45200722 105.73283641 -56.02211889 96.40402484 -50.5625 87.08984375 C-46.8678669 80.78429581 -43.21147319 74.45705564 -39.5625 68.125 C-38.62869507 66.50476929 -38.62869507 66.50476929 -37.67602539 64.85180664 C-36.41423174 62.66203666 -35.15259466 60.47217645 -33.89111328 58.28222656 C-30.14856359 51.78663684 -26.40099757 45.29393958 -22.65380859 38.80102539 C-19.71817241 33.71374968 -16.78383388 28.62573896 -13.85409546 23.5350647 C-12.46671905 21.12456252 -11.07860376 18.71448624 -9.69042969 16.30444336 C-8.70826185 14.59856032 -7.72716615 12.89206014 -6.74609375 11.18554688 C-6.153125 10.15623047 -5.56015625 9.12691406 -4.94921875 8.06640625 C-4.42674561 7.15834229 -3.90427246 6.25027832 -3.3659668 5.31469727 C-2.30022034 3.50873799 -1.16319248 1.74478871 0 0 Z " fill="#020202" transform="translate(316,634)"/>
<path d="M0 0 C2.83021193 2.66693047 4.43079403 5.93856645 6.203125 9.34765625 C7.08985917 10.99748774 7.97932742 12.6458518 8.87109375 14.29296875 C9.34724121 15.17500977 9.82338867 16.05705078 10.31396484 16.96582031 C12.95404427 21.77262085 15.73831709 26.49425074 18.515625 31.22265625 C19.72038725 33.27975166 20.92480843 35.33704685 22.12890625 37.39453125 C22.73814941 38.43544922 23.34739258 39.47636719 23.97509766 40.54882812 C32.71495361 55.51827837 41.31658546 70.5677171 49.90420532 85.62481689 C55.08797625 94.71061503 60.33006521 103.76086666 65.61181641 112.79003906 C71.75909176 123.3018625 77.8372913 133.85314864 83.91503906 144.40527344 C85.85900251 147.77619933 87.80775434 151.14431539 89.7578125 154.51171875 C95.46061783 164.3639613 101.1554362 174.2194827 106.703125 184.16015625 C107.11409424 184.89363281 107.52506348 185.62710938 107.94848633 186.3828125 C111.96435169 193.62622754 112.76720693 199.48763011 111.828125 207.72265625 C108.73652875 217.08577632 103.75240484 223.35226784 95.06227112 227.8505249 C88.43089562 230.70673216 81.4706503 230.24940752 74.39428711 230.17675781 C72.84618153 230.17562786 71.29807382 230.17626607 69.74996948 230.17852783 C65.57069317 230.17967016 61.391881 230.15623941 57.21271205 230.128232 C52.83653954 230.10313765 48.46035506 230.10087004 44.0841217 230.09613037 C35.80760784 230.08372411 27.53130665 230.0509345 19.25488621 230.01073241 C9.82804293 229.96594134 0.40118922 229.94400925 -9.02573407 229.92395067 C-28.40790138 229.88219964 -47.78987106 229.81189355 -67.171875 229.72265625 C-67.57011978 229.00951767 -67.96836456 228.29637909 -68.37867737 227.56163025 C-69.87913989 224.87570447 -71.38037029 222.19020969 -72.88209534 219.50498962 C-73.84242696 217.78730084 -74.80189933 216.06913175 -75.76135254 214.35095215 C-79.15038439 208.29237868 -82.56788337 202.25600527 -86.109375 196.28515625 C-86.52218216 195.58889633 -86.93498932 194.89263641 -87.36030579 194.17527771 C-87.92445442 193.22419884 -87.92445442 193.22419884 -88.5 192.25390625 C-91.83189408 186.6239777 -95.09335173 180.95346455 -98.359375 175.28515625 C-98.99738037 174.17793213 -99.63538574 173.07070801 -100.29272461 171.92993164 C-101.60076977 169.65928557 -102.90862948 167.38853267 -104.21630859 165.11767578 C-107.98740273 158.57075505 -111.76458576 152.0273456 -115.54125977 145.48364258 C-118.69506579 140.01844332 -121.84621829 134.55174597 -124.9921875 129.08203125 C-126.26033621 126.87885994 -127.52856473 124.67573456 -128.796875 122.47265625 C-129.71641968 120.87345337 -129.71641968 120.87345337 -130.65454102 119.24194336 C-133.73077733 113.90471617 -136.83728549 108.5888595 -140.00390625 103.3046875 C-140.61089355 102.28987305 -141.21788086 101.27505859 -141.84326172 100.22949219 C-142.99391178 98.31121188 -144.15021706 96.39630891 -145.31298828 94.48535156 C-145.82200684 93.63682617 -146.33102539 92.78830078 -146.85546875 91.9140625 C-147.30462646 91.17357666 -147.75378418 90.43309082 -148.21655273 89.67016602 C-149.171875 87.72265625 -149.171875 87.72265625 -149.171875 84.72265625 C-64.671875 35.97265625 -64.671875 35.97265625 -61.41967773 34.09643555 C-59.26028105 32.85059855 -57.10093831 31.60466807 -54.94165039 30.35864258 C-49.41419903 27.16916672 -43.88572379 23.9814874 -38.35546875 20.796875 C-37.23479004 20.15097412 -36.11411133 19.50507324 -34.95947266 18.83959961 C-32.75323074 17.56894447 -30.54589999 16.30017771 -28.33740234 15.03344727 C-23.48648561 12.24493427 -18.66117278 9.43166123 -13.90234375 6.48828125 C-13.11480713 6.00593018 -12.32727051 5.5235791 -11.51586914 5.02661133 C-10.08328183 4.14442504 -8.65856514 3.24926658 -7.24389648 2.33862305 C-2.83992886 -0.36265279 -2.83992886 -0.36265279 0 0 Z " fill="#000000" transform="translate(762.171875,392.27734375)"/>
<path d="M0 0 C8.85211869 4.67781685 13.75673398 14.4910684 18.4375 22.875 C19.4219509 24.6095732 20.40641608 26.34413849 21.39173889 28.07821655 C22.40702846 29.86763165 23.41841079 31.65921103 24.42919922 33.45117188 C27.58111538 39.03113919 30.79311593 44.5765084 34 50.125 C34.62140869 51.20265625 35.24281738 52.2803125 35.88305664 53.390625 C40.02247981 60.56655952 44.19203594 67.7243805 48.375 74.875 C53.7921278 84.13716013 59.13351646 93.44097863 64.44262695 102.76528931 C68.10524031 109.19731283 71.78467077 115.61805864 75.52734375 122.00390625 C76.17509766 123.10927734 76.82285156 124.21464844 77.49023438 125.35351562 C78.7193617 127.44621634 79.95101417 129.53743661 81.18554688 131.62695312 C81.73146484 132.55572266 82.27738281 133.48449219 82.83984375 134.44140625 C83.31929443 135.25295166 83.79874512 136.06449707 84.29272461 136.90063477 C85.4375 139 85.4375 139 86.4375 142 C85.3203125 144.49829102 85.3203125 144.49829102 83.5625 147.50390625 C82.91466553 148.62361816 82.26683105 149.74333008 81.59936523 150.89697266 C80.87888861 152.11890068 80.15826288 153.3407408 79.4375 154.5625 C78.70091758 155.8280395 77.96533473 157.09416126 77.23071289 158.36083984 C75.71500248 160.9712403 74.19396234 163.5784174 72.66845703 166.18310547 C69.99197225 170.75608734 67.34923732 175.34830839 64.70703125 179.94116211 C62.85894662 183.15289874 61.0063528 186.3619926 59.15234375 189.5703125 C56.03745149 194.96093636 52.92528333 200.35312484 49.81445312 205.74609375 C47.94040437 208.99496496 46.06590572 212.24357632 44.19140625 215.4921875 C41.67680564 219.85065388 39.16395339 224.21012191 36.65234375 228.5703125 C11.81444595 271.68013563 11.81444595 271.68013563 3.4375 285 C-0.20314285 284.32014038 -2.97004407 282.77369455 -6.1640625 280.9296875 C-7.28055176 280.28829834 -8.39704102 279.64690918 -9.54736328 278.98608398 C-10.76079845 278.28248634 -11.97417583 277.57878903 -13.1875 276.875 C-14.44880809 276.14808856 -15.71036789 275.42161372 -16.97216797 274.69555664 C-20.21449365 272.82844338 -23.45356826 270.95576507 -26.69189453 269.08172607 C-29.55296874 267.42723579 -32.41715077 265.7781529 -35.28125 264.12890625 C-40.63816996 261.04309292 -45.9919625 257.95190226 -51.34472656 254.85888672 C-56.74920645 251.73675395 -62.15597412 248.61858796 -67.5625 245.5 C-69.7291775 244.25001878 -71.89584417 243.00001879 -74.0625 241.75 C-75.67125 240.821875 -75.67125 240.821875 -77.3125 239.875 C-82.1875 237.0625 -82.1875 237.0625 -87.0625 234.25 C-88.13604736 233.63068604 -89.20959473 233.01137207 -90.31567383 232.37329102 C-92.47190213 231.12923208 -94.62799049 229.88493058 -96.78393555 228.64038086 C-101.77697507 225.75845933 -106.7712388 222.8787525 -111.77075195 220.0080719 C-135.38416049 206.44902888 -135.38416049 206.44902888 -145.5625 200 C-144.87392951 196.35809496 -143.33517882 193.52423419 -141.53515625 190.30078125 C-140.91318359 189.1830835 -140.29121094 188.06538574 -139.65039062 186.91381836 C-138.97552431 185.71323053 -138.30038811 184.51279437 -137.625 183.3125 C-136.93277728 182.0750437 -136.24072106 180.83749424 -135.54882812 179.59985352 C-131.19697086 171.83152586 -126.75362541 164.12232705 -122.203125 156.46875 C-118.85225047 150.82297077 -115.58739024 145.12756472 -112.3125 139.4375 C-107.44490176 130.98325042 -102.55204613 122.54473374 -97.625 114.125 C-92.20276238 104.85444994 -86.85925898 95.54063142 -81.54226685 86.20953369 C-76.37195595 77.13790512 -71.14004017 68.10419075 -65.86035156 59.09570312 C-61.98981167 52.47995918 -58.18084077 45.8316994 -54.39648438 39.16650391 C-51.13970418 33.43211124 -47.85650205 27.71309118 -44.5625 22 C-44.05138672 21.11086914 -43.54027344 20.22173828 -43.01367188 19.30566406 C-33.6856418 3.21189312 -19.52538639 -8.92159963 0 0 Z " fill="#010101" transform="translate(407.5625,160)"/>
<path d="M0 0 C3.36745464 0.54934007 4.48204821 0.99545685 7.1875 3.25 C8.91198812 6.77736205 8.39411658 8.28242465 7.5625 12.0625 C7.89009934 14.39664529 8.22323053 16.73002239 8.5625 19.0625 C8.271276 20.73703799 7.95179201 22.40800895 7.5625 24.0625 C7.8925 24.3925 8.2225 24.7225 8.5625 25.0625 C7.86482558 31.45784884 7.86482558 31.45784884 6.5625 34.0625 C7.2225 34.0625 7.8825 34.0625 8.5625 34.0625 C8.5625 38.0625 8.5625 42.0625 8.5625 46.0625 C7.5725 46.0625 6.5825 46.0625 5.5625 46.0625 C5.5625 46.7225 5.5625 47.3825 5.5625 48.0625 C6.2225 48.0625 6.8825 48.0625 7.5625 48.0625 C9.06406874 51.06563748 8.65531204 53.85317522 8.625 57.1875 C8.61597656 58.46882812 8.60695313 59.75015625 8.59765625 61.0703125 C8.58605469 62.05773437 8.57445313 63.04515625 8.5625 64.0625 C7.0775 64.5575 7.0775 64.5575 5.5625 65.0625 C6.04976562 66.01898437 6.53703125 66.97546875 7.0390625 67.9609375 C8.98938436 72.52547169 9.00645911 76.78374131 8.9375 81.6875 C8.94910156 82.52023437 8.96070312 83.35296875 8.97265625 84.2109375 C8.95011019 88.93057925 8.73158672 92.29827962 5.5625 96.0625 C4.0775 96.5575 4.0775 96.5575 2.5625 97.0625 C3.2225 97.7225 3.8825 98.3825 4.5625 99.0625 C2.0875 99.5575 2.0875 99.5575 -0.4375 100.0625 C-0.4375 99.4025 -0.4375 98.7425 -0.4375 98.0625 C-2.4175 98.5575 -2.4175 98.5575 -4.4375 99.0625 C-4.4375 98.4025 -4.4375 97.7425 -4.4375 97.0625 C-5.0975 96.7325 -5.7575 96.4025 -6.4375 96.0625 C-5.7775 96.0625 -5.1175 96.0625 -4.4375 96.0625 C-4.4375 95.4025 -4.4375 94.7425 -4.4375 94.0625 C-5.4275 94.0625 -6.4175 94.0625 -7.4375 94.0625 C-7.4375 93.4025 -7.4375 92.7425 -7.4375 92.0625 C-4.9625 91.5675 -4.9625 91.5675 -2.4375 91.0625 C-2.4375 91.7225 -2.4375 92.3825 -2.4375 93.0625 C-0.4575 92.5675 -0.4575 92.5675 1.5625 92.0625 C1.5625 92.7225 1.5625 93.3825 1.5625 94.0625 C2.5525 93.0725 3.5425 92.0825 4.5625 91.0625 C2.31291666 88.47916771 2.31291666 88.47916771 -0.4375 86.0625 C-1.7575 86.0625 -3.0775 86.0625 -4.4375 86.0625 C-4.4375 87.3825 -4.4375 88.7025 -4.4375 90.0625 C-5.7575 89.7325 -7.0775 89.4025 -8.4375 89.0625 C-8.52712944 85.20843414 -8.20949421 81.82597177 -7.4375 78.0625 C-7.499375 77.19625 -7.56125 76.33 -7.625 75.4375 C-7.563125 74.65375 -7.50125 73.87 -7.4375 73.0625 C-5.5 71.4375 -5.5 71.4375 -3.4375 70.0625 C-3.1075 69.0725 -2.7775 68.0825 -2.4375 67.0625 C-4.0875 66.4025 -5.7375 65.7425 -7.4375 65.0625 C-7.43226318 64.03777588 -7.42702637 63.01305176 -7.42163086 61.95727539 C-7.40358031 58.16854724 -7.3920678 54.37982291 -7.38256836 50.59106445 C-7.37752826 48.94880536 -7.37069622 47.30655077 -7.36206055 45.66430664 C-7.34998074 43.30874521 -7.34426861 40.95324291 -7.33984375 38.59765625 C-7.33468246 37.85910904 -7.32952118 37.12056183 -7.32420349 36.3596344 C-7.3240075 34.59351912 -7.37555281 32.82752854 -7.4375 31.0625 C-7.7675 30.7325 -8.0975 30.4025 -8.4375 30.0625 C-8.16881712 28.14813445 -7.89934584 26.2338747 -7.625 24.3203125 C-7.43641436 22.04942713 -7.59570576 20.12229716 -7.9375 17.875 C-8.39431156 14.39181183 -8.24797927 12.39447034 -7.4375 9.0625 C-7.47875 8.216875 -7.52 7.37125 -7.5625 6.5 C-7.4375 4.0625 -7.4375 4.0625 -6.5 1.6875 C-4.00050765 -0.28179701 -3.11301119 -0.17920295 0 0 Z " fill="#E7E7E7" transform="translate(23.4375,762.9375)"/>
<path d="M0 0 C-0.89456869 6.64536741 -0.89456869 6.64536741 -1.6875 9.3125 C-1.790625 9.869375 -1.89375 10.42625 -2 11 C-1.34 11.66 -0.68 12.32 0 13 C0.2117572 15.47388875 0.30399471 17.83311124 0.30078125 20.30859375 C0.30506638 21.03111832 0.3093515 21.75364288 0.31376648 22.49806213 C0.31951237 24.02709912 0.32000812 25.55616344 0.31567383 27.08520508 C0.31251671 29.42511674 0.33595758 31.76376067 0.36132812 34.10351562 C0.36360139 35.58854007 0.36430449 37.07356792 0.36328125 38.55859375 C0.372491 39.2586705 0.38170074 39.95874725 0.39118958 40.68003845 C0.34475918 45.55507991 0.34475918 45.55507991 -1.52270508 47.96508789 C-2.25396606 48.47736938 -2.25396606 48.47736938 -3 49 C-2.34 49.33 -1.68 49.66 -1 50 C-1 51.65 -1 53.3 -1 55 C-6.65020618 54.39891424 -11.66164461 52.92471317 -17 51 C-17.25 48.6875 -17.25 48.6875 -17 46 C-16.34 45.54625 -15.68 45.0925 -15 44.625 C-14.34 44.08875 -13.68 43.5525 -13 43 C-12.66619186 39.37436186 -12.66619186 39.37436186 -13 36 C-14.65 36 -16.3 36 -18 36 C-17.67 34.68 -17.34 33.36 -17 32 C-14.525 31.505 -14.525 31.505 -12 31 C-12 30.34 -12 29.68 -12 29 C-12.66 29 -13.32 29 -14 29 C-13.8453125 27.3603125 -13.8453125 27.3603125 -13.6875 25.6875 C-13.790625 24.470625 -13.89375 23.25375 -14 22 C-16.3726974 19.99135641 -16.3726974 19.99135641 -19 19 C-18.67 17.68 -18.34 16.36 -18 15 C-16.68 14.67 -15.36 14.34 -14 14 C-13.23681405 9.17867673 -13.23681405 9.17867673 -13.0625 4.3125 C-12.98971276 1.61937205 -12.56571188 0.19199663 -11 -2 C-7.07040122 -4.18311043 -3.6835409 -1.77093312 0 0 Z " fill="#EAEAEA" transform="translate(32,930)"/>
<path d="M0 0 C3 0.25 3 0.25 5 2.25 C5.7166207 4.56847874 6.38242027 6.90319703 7 9.25 C7.33 10.24 7.66 11.23 8 12.25 C7.0625 14.4375 7.0625 14.4375 6 16.25 C6.66 16.91 7.32 17.57 8 18.25 C8.33333333 23.58333333 8.33333333 23.58333333 7 26.25 C5.35 26.25 3.7 26.25 2 26.25 C2 24.27 2 22.29 2 20.25 C1.34 19.92 0.68 19.59 0 19.25 C-0.226875 20.054375 -0.45375 20.85875 -0.6875 21.6875 C-2 24.25 -2 24.25 -4.5 25.1875 C-5.325 25.208125 -6.15 25.22875 -7 25.25 C-9 23.25 -9 23.25 -9.1875 19.875 C-9.04410663 17.10272822 -8.83710258 14.86594556 -8 12.25 C-7.34 12.25 -6.68 12.25 -6 12.25 C-5.95101563 11.55132813 -5.90203125 10.85265625 -5.8515625 10.1328125 C-5.77679687 9.22273437 -5.70203125 8.31265625 -5.625 7.375 C-5.55539063 6.47007812 -5.48578125 5.56515625 -5.4140625 4.6328125 C-4.76815823 0.91581624 -3.7061928 0.3088494 0 0 Z " fill="#E2E2E2" transform="translate(24,898.75)"/>
<path d="M0 0 C1 1 1 1 1.0625 3.5625 C1.041875 4.366875 1.02125 5.17125 1 6 C1.66 6 2.32 6 3 6 C4.76496414 11.29489243 4.89559717 16.91027326 2.6875 22.0625 C1 24 1 24 -2 25 C-1.34 25.66 -0.68 26.32 0 27 C-1.65 27.33 -3.3 27.66 -5 28 C-5 27.34 -5 26.68 -5 26 C-6.32 26.33 -7.64 26.66 -9 27 C-9 26.34 -9 25.68 -9 25 C-9.66 24.67 -10.32 24.34 -11 24 C-10.34 24 -9.68 24 -9 24 C-9 23.34 -9 22.68 -9 22 C-9.99 22 -10.98 22 -12 22 C-12 21.34 -12 20.68 -12 20 C-10.35 19.67 -8.7 19.34 -7 19 C-7 19.66 -7 20.32 -7 21 C-5.68 20.67 -4.36 20.34 -3 20 C-3 20.66 -3 21.32 -3 22 C-2.01 21.01 -1.02 20.02 0 19 C-2.24958334 16.41666771 -2.24958334 16.41666771 -5 14 C-6.32 14 -7.64 14 -9 14 C-9 15.32 -9 16.64 -9 18 C-10.32 17.67 -11.64 17.34 -13 17 C-13.08962944 13.14593414 -12.77199421 9.76347177 -12 6 C-11.9629721 4.3337447 -11.95240038 2.66598681 -12 1 C-11.236875 0.855625 -10.47375 0.71125 -9.6875 0.5625 C-2.7 -0.9 -2.7 -0.9 0 0 Z " fill="#E4E4E4" transform="translate(28,835)"/>
<path d="M0 0 C2.31 0.33 4.62 0.66 7 1 C7.14584064 4.22868746 7.23424106 7.45652365 7.3125 10.6875 C7.35439453 11.59951172 7.39628906 12.51152344 7.43945312 13.45117188 C7.52504788 18.15888339 7.53630528 20.28727851 4.625 24.15625 C2 26 2 26 -0.3125 25.8125 C-0.869375 25.544375 -1.42625 25.27625 -2 25 C-2 24.01 -2 23.02 -2 22 C-1.360625 21.731875 -0.72125 21.46375 -0.0625 21.1875 C2.33131686 20.11332248 2.33131686 20.11332248 3 17 C1.98679687 17.26876953 1.98679687 17.26876953 0.953125 17.54296875 C-0.38492188 17.86201172 -0.38492188 17.86201172 -1.75 18.1875 C-2.63171875 18.40792969 -3.5134375 18.62835937 -4.421875 18.85546875 C-7 19 -7 19 -9.29296875 17.73046875 C-11 16 -11 16 -11.5625 13.125 C-10.80732385 8.92957694 -9.43841567 7.4666895 -6 5 C-2.6875 5.1875 -2.6875 5.1875 0 6 C0.33 5.34 0.66 4.68 1 4 C0.34 4 -0.32 4 -1 4 C-0.67 2.68 -0.34 1.36 0 0 Z " fill="#0B0B0B" transform="translate(635,607)"/>
<path d="M0 0 C2.64 0 5.28 0 8 0 C8 0.66 8 1.32 8 2 C8.66 2 9.32 2 10 2 C11.50156874 5.00313748 11.09281204 7.79067522 11.0625 11.125 C11.05347656 12.40632812 11.04445313 13.68765625 11.03515625 15.0078125 C11.02355469 15.99523437 11.01195313 16.98265625 11 18 C10.01 18.33 9.02 18.66 8 19 C8.495 20.03125 8.99 21.0625 9.5 22.125 C10.97473902 25.52451578 11.27291106 28.27021549 11 32 C9.35 32.66 7.7 33.32 6 34 C6.33 31.69 6.66 29.38 7 27 C3.98968256 26.06576355 3.13349732 25.95550089 0 27 C-0.99 26.34 -1.98 25.68 -3 25 C-2.34 24.67 -1.68 24.34 -1 24 C-0.67 23.01 -0.34 22.02 0 21 C-2.475 20.01 -2.475 20.01 -5 19 C-4.67 16.36 -4.34 13.72 -4 11 C-3.28972656 11.01160156 -2.57945313 11.02320313 -1.84765625 11.03515625 C-0.92855469 11.04417969 -0.00945313 11.05320312 0.9375 11.0625 C2.31228516 11.07990234 2.31228516 11.07990234 3.71484375 11.09765625 C5.96593327 11.25949049 5.96593327 11.25949049 7 10 C7.04063832 8.33382885 7.042721 6.66611905 7 5 C3.535 3.02 3.535 3.02 0 1 C0 0.67 0 0.34 0 0 Z " fill="#E7E7E7" transform="translate(21,809)"/>
<path d="M0 0 C0.33 0 0.66 0 1 0 C1 5.94 1 11.88 1 18 C0.34 18 -0.32 18 -1 18 C-1 18.66 -1 19.32 -1 20 C-3.97 20.33 -6.94 20.66 -10 21 C-10.33 20.01 -10.66 19.02 -11 18 C-11.66 18 -12.32 18 -13 18 C-13 16.35 -13 14.7 -13 13 C-14.32 13 -15.64 13 -17 13 C-17 11.68 -17 10.36 -17 9 C-13.535 8.505 -13.535 8.505 -10 8 C-10.66 7.34 -11.32 6.68 -12 6 C-11.67 5.01 -11.34 4.02 -11 3 C-9.68 3.99 -8.36 4.98 -7 6 C-5.35 5.01 -3.7 4.02 -2 3 C-2 4.32 -2 5.64 -2 7 C-1.855625 6.21625 -1.71125 5.4325 -1.5625 4.625 C-1 2 -1 2 0 0 Z " fill="#E9E9E9" transform="translate(31,876)"/>
<path d="M0 0 C0.66 0 1.32 0 2 0 C2 0.66 2 1.32 2 2 C2.58523437 2.25652344 3.17046875 2.51304687 3.7734375 2.77734375 C6.19234608 4.10562162 7.73198872 5.56524801 9.625 7.5625 C12.04521959 10.14015389 12.04521959 10.14015389 15 12 C14.66466723 15.01799494 14.13434402 16.80881813 12.375 19.3125 C9.07601619 21.65651481 6.96268075 21.49533509 3 21 C0.5625 20 0.5625 20 -1 18 C-1.31230353 14.12743618 -1.21132632 11.03315091 -0.4375 7.25 C0.03970344 4.79581087 -0.32352266 3.36767068 -1 1 C-0.67 0.67 -0.34 0.34 0 0 Z " fill="#0C0C0C" transform="translate(204,520)"/>
<path d="M0 0 C4.46797338 1.39878802 8.63822079 3.13630772 12.875 5.125 C14.02742187 5.66382813 15.17984375 6.20265625 16.3671875 6.7578125 C17.23601563 7.16773438 18.10484375 7.57765625 19 8 C18.34 9.32 17.68 10.64 17 12 C14.69 11.67 12.38 11.34 10 11 C9.96261719 11.62648438 9.92523437 12.25296875 9.88671875 12.8984375 C9.82097656 13.71570313 9.75523437 14.53296875 9.6875 15.375 C9.62949219 16.18710937 9.57148437 16.99921875 9.51171875 17.8359375 C9 20 9 20 6 22 C4.62825139 19.44560598 3.27774592 16.88335569 1.9375 14.3125 C1.54755859 13.59126953 1.15761719 12.87003906 0.75585938 12.12695312 C-2.0452033 6.69834492 -2.0452033 6.69834492 -1.80859375 3.04296875 C-1 1 -1 1 0 0 Z " fill="#0D0D0D" transform="translate(694,716)"/>
<path d="M0 0 C3.375 1.0625 3.375 1.0625 5.25 2.875 C7.23377863 6.73234733 7.23377863 6.73234733 7.375 9.0625 C5.9757781 11.86094381 4.58708617 13.85041383 2.375 16.0625 C-1.44575506 15.92099055 -3.89511288 15.56780647 -7.0625 13.375 C-9.15022494 10.28516708 -9.2975974 8.7244192 -8.625 5.0625 C-5.92665364 1.21940065 -4.75860157 0.08204485 0 0 Z " fill="#0D0D0D" transform="translate(544.625,191.9375)"/>
<path d="M0 0 C1.94140625 0.37890625 1.94140625 0.37890625 4.44140625 1.94140625 C6.52533443 5.32778954 6.49942722 7.47275943 5.94140625 11.37890625 C4.37890625 13.81640625 4.37890625 13.81640625 1.94140625 15.37890625 C-1.99875388 15.94178627 -4.11641571 15.98286653 -7.49609375 13.81640625 C-9.64739122 10.46038219 -9.54806666 8.29468954 -9.05859375 4.37890625 C-7.25061386 -0.02804474 -4.59262964 -0.26219433 0 0 Z " fill="#0B0B0B" transform="translate(267.05859375,643.62109375)"/>
<path d="M0 0 C2.4375 1.5625 2.4375 1.5625 4 4 C4.56783945 7.97487617 4.62340519 10.06489221 2.375 13.4375 C-0.69817115 15.45932313 -2.38247881 15.52755517 -6 15 C-8.3125 14 -8.3125 14 -10 12 C-10.89270108 9.28734057 -11.22932322 6.84934101 -11 4 C-8.2505467 -0.58242217 -5.06154425 -0.72307775 0 0 Z " fill="#0B0B0B" transform="translate(728,696)"/>
<path d="M0 0 C1.9375 1.0625 1.9375 1.0625 3 3 C3.39295479 6.09451899 3.63477762 8.04561446 3 11 C0.8125 13.5625 0.8125 13.5625 -2 15 C-5.59585463 15.08989637 -6.97185791 14.02080068 -9.875 11.875 C-12 9 -12 9 -12.0625 5.375 C-11 2 -11 2 -9.375 0 C-5.91616747 -1.45635054 -3.58701629 -0.91305869 0 0 Z " fill="#0B0B0B" transform="translate(280,461)"/>
<path d="M0 0 C-0.88188976 6.5511811 -0.88188976 6.5511811 -1.625 9.375 C-1.74875 9.91125 -1.8725 10.4475 -2 11 C-1.67 11.33 -1.34 11.66 -1 12 C-0.95919217 13.99958364 -0.95745644 16.00045254 -1 18 C-1.66 18.33 -2.32 18.66 -3 19 C-3.4640625 17.5459375 -3.4640625 17.5459375 -3.9375 16.0625 C-4.69523342 13.15934208 -4.69523342 13.15934208 -6 12 C-7.66617115 11.95936168 -9.33388095 11.957279 -11 12 C-11.99 14.475 -11.99 14.475 -13 17 C-14.65 17 -16.3 17 -18 17 C-18.33 17.66 -18.66 18.32 -19 19 C-18.67 17.68 -18.34 16.36 -18 15 C-16.68 14.67 -15.36 14.34 -14 14 C-13.23681405 9.17867673 -13.23681405 9.17867673 -13.0625 4.3125 C-12.98971276 1.61937205 -12.56571188 0.19199663 -11 -2 C-7.07040122 -4.18311043 -3.6835409 -1.77093312 0 0 Z " fill="#DCDCDC" transform="translate(32,930)"/>
<path d="M0 0 C1.89688882 1.89688882 1 5.46151915 1 8 C1.31674575 9.33737094 1.64270064 10.67288808 2 12 C1 13 1 13 -1.28515625 13.09765625 C-2.65994141 13.08025391 -2.65994141 13.08025391 -4.0625 13.0625 C-4.98160156 13.05347656 -5.90070312 13.04445313 -6.84765625 13.03515625 C-7.55792969 13.02355469 -8.26820312 13.01195312 -9 13 C-9 13.99 -9 14.98 -9 16 C-9.66 16 -10.32 16 -11 16 C-11.71167986 10.92928099 -12.10662326 6.11791642 -12 1 C-11.236875 0.855625 -10.47375 0.71125 -9.6875 0.5625 C-2.7 -0.9 -2.7 -0.9 0 0 Z " fill="#DDDDDD" transform="translate(28,788)"/>
<path d="M0 0 C0 0.66 0 1.32 0 2 C0.66 2.33 1.32 2.66 2 3 C1.360625 3.433125 0.72125 3.86625 0.0625 4.3125 C-2.26746003 5.91239177 -2.26746003 5.91239177 -3 9 C-2.113125 8.67 -1.22625 8.34 -0.3125 8 C2.7668654 7.07038026 4.8324366 6.57195089 8 7 C9.8125 8.125 9.8125 8.125 11 10 C11.5 12.875 11.5 12.875 11 16 C8.8125 18.9375 8.8125 18.9375 6 21 C3.1875 20.8125 3.1875 20.8125 1 20 C1 19.34 1 18.68 1 18 C4.46153846 15 4.46153846 15 7 15 C7 14.01 7 13.02 7 12 C6.154375 12.350625 5.30875 12.70125 4.4375 13.0625 C0.5144844 14.13241334 -2.06469683 13.92595369 -6 13 C-7.44430855 10.11138291 -7.37688506 8.20352299 -7 5 C-2.86956522 0 -2.86956522 0 0 0 Z " fill="#0E0E0E" transform="translate(299,602)"/>
<path d="M0 0 C4.29 0 8.58 0 13 0 C13 0.99 13 1.98 13 3 C10.69 3.33 8.38 3.66 6 4 C6.969375 4.474375 7.93875 4.94875 8.9375 5.4375 C12 7 12 7 13 8 C13.1875 10.4375 13.1875 10.4375 13 13 C11 15 11 15 8.90625 15.265625 C8.1121875 15.26046875 7.318125 15.2553125 6.5 15.25 C5.7059375 15.25515625 4.911875 15.2603125 4.09375 15.265625 C2 15 2 15 0 13 C-0.27917421 8.65604929 -0.08542138 4.35649033 0 0 Z " fill="#B0B0B0" transform="translate(16,806)"/>
<path d="M0 0 C0.86625 0.37125 0.86625 0.37125 1.75 0.75 C0 4.625 0 4.625 -2.25 5.75 C-2.25 6.41 -2.25 7.07 -2.25 7.75 C1.05 7.09 4.35 6.43 7.75 5.75 C10.225 10.205 10.225 10.205 12.75 14.75 C7.671875 19.53515625 7.671875 19.53515625 5.75 20.75 C3.515625 20.43359375 3.515625 20.43359375 1.75 19.75 C1.75 18.76 1.75 17.77 1.75 16.75 C2.389375 16.481875 3.02875 16.21375 3.6875 15.9375 C6.08131686 14.86332248 6.08131686 14.86332248 6.75 11.75 C6.069375 11.915 5.38875 12.08 4.6875 12.25 C1.3335178 12.82089059 -1.85389805 12.81659023 -5.25 12.75 C-6.73400777 10.39304648 -7.26570001 9.06400019 -7.125 6.25 C-5.85861016 2.6317433 -4.17369377 -0.46374375 0 0 Z " fill="#101010" transform="translate(792.25,451.25)"/>
<path d="M0 0 C1.93166016 0.01740234 1.93166016 0.01740234 3.90234375 0.03515625 C5.19269531 0.04417969 6.48304688 0.05320312 7.8125 0.0625 C8.81152344 0.07410156 9.81054688 0.08570313 10.83984375 0.09765625 C11.4597113 8.31090128 11.4597113 8.31090128 9.21484375 11.16015625 C6.04698138 12.41062824 4.21876787 12.71827497 0.83984375 12.09765625 C-2.18314618 9.27181784 -3.9802716 7.44679112 -4.53515625 3.28515625 C-3.94245999 -0.17223859 -3.65238303 0.11286721 0 0 Z " fill="#0B0B0B" transform="translate(443.16015625,634.90234375)"/>
<path d="M0 0 C2.79998966 0.50256225 3.69857595 1.24096435 5.4375 3.4375 C4.4375 5.4375 3.4375 7.4375 2.4375 9.4375 C1.7775 9.4375 1.1175 9.4375 0.4375 9.4375 C0.4375 10.0975 0.4375 10.7575 0.4375 11.4375 C3.06651288 9.91543991 5.28115964 8.59384036 7.4375 6.4375 C8.0975 7.7575 8.7575 9.0775 9.4375 10.4375 C5.34889241 15.24762658 5.34889241 15.24762658 1.4375 16.0625 C-2.6368356 15.21368008 -4.10655875 13.76024404 -6.5625 10.4375 C-7.125 7.375 -7.125 7.375 -6.5625 4.4375 C-4.55049381 1.60578758 -3.44178233 0.58762137 0 0 Z " fill="#0D0D0D" transform="translate(780.5625,469.5625)"/>
<path d="M0 0 C1.32 0.66 2.64 1.32 4 2 C3.01 3.485 3.01 3.485 2 5 C1.60986284 6.9896995 1.26797351 8.99019869 1 11 C3.97065509 10.65772428 3.97065509 10.65772428 7 10 C7.33 9.34 7.66 8.68 8 8 C9.32 8.66 10.64 9.32 12 10 C11.0518738 12.37031549 10.31103322 13.76672508 8.25 15.3125 C5.11082448 16.27169252 3.13830576 15.91533918 0 15 C-2.4375 13.4375 -2.4375 13.4375 -4 11 C-4.24635521 7.18149428 -3.81314514 4.04082578 -1.4375 1 C-0.963125 0.67 -0.48875 0.34 0 0 Z " fill="#0D0D0D" transform="translate(293,781)"/>
<path d="M0 0 C6.6 0 13.2 0 20 0 C20.33 1.65 20.66 3.3 21 5 C13.74 5 6.48 5 -1 5 C-0.67 3.35 -0.34 1.7 0 0 Z " fill="#A9A9A9" transform="translate(14,868)"/>
<path d="M0 0 C1.32 0.33 2.64 0.66 4 1 C3.67 1.5775 3.34 2.155 3 2.75 C1.72924102 5.19883862 1.72924102 5.19883862 2 9 C2.99 9.33 3.98 9.66 5 10 C5.99 9.34 6.98 8.68 8 8 C10.1875 8.375 10.1875 8.375 12 9 C10.84826645 11.46800047 9.95216435 13.04783565 8 15 C4.14493238 15.42834085 1.87199635 15.55897202 -1.4375 13.4375 C-3.58879747 10.08147594 -3.48947291 7.91578329 -3 4 C-1.5 1.5625 -1.5 1.5625 0 0 Z " fill="#0E0E0E" transform="translate(444,288)"/>
<path d="M0 0 C5.61 0 11.22 0 17 0 C16.01 0.495 16.01 0.495 15 1 C14.855625 1.804375 14.71125 2.60875 14.5625 3.4375 C14 6 14 6 11 8 C7.01316304 8.43492767 4.87008283 8.62467485 1.5625 6.25 C0 4 0 4 0 0 Z " fill="#0E0E0E" transform="translate(591,145)"/>
<path d="M0 0 C2.31243792 -0.02685412 4.6249627 -0.04632841 6.9375 -0.0625 C8.22527344 -0.07410156 9.51304688 -0.08570313 10.83984375 -0.09765625 C14 0 14 0 15 1 C15.1875 3.9375 15.1875 3.9375 15 7 C13 9 13 9 10 9.3125 C9.01 9.209375 8.02 9.10625 7 9 C5 6 5 6 5 3 C3.35 3 1.7 3 0 3 C0 2.01 0 1.02 0 0 Z " fill="#656565" transform="translate(14,963)"/>
<path d="M0 0 C2.625 0.25 2.625 0.25 4.4375 1.375 C5.625 3.25 5.625 3.25 5.625 9.25 C0.675 9.25 -4.275 9.25 -9.375 9.25 C-9.375 8.26 -9.375 7.27 -9.375 6.25 C-7.725 6.25 -6.075 6.25 -4.375 6.25 C-4.230625 5.445625 -4.08625 4.64125 -3.9375 3.8125 C-3.17394875 0.33409987 -3.17394875 0.33409987 0 0 Z " fill="#656565" transform="translate(23.375,940.75)"/>
<path d="M0 0 C4.875 0.875 4.875 0.875 6 2 C6.1875 4.4375 6.1875 4.4375 6 7 C4 9 4 9 1.90625 9.265625 C1.1121875 9.26046875 0.318125 9.2553125 -0.5 9.25 C-1.2940625 9.25515625 -2.088125 9.2603125 -2.90625 9.265625 C-5 9 -5 9 -7 7 C-7.125 4.375 -7.125 4.375 -7 2 C-2.25 0.875 -2.25 0.875 0 2 C0 1.34 0 0.68 0 0 Z " fill="#515151" transform="translate(23,776)"/>
<path d="M0 0 C0.66 0 1.32 0 2 0 C2 0.66 2 1.32 2 2 C2.66 2 3.32 2 4 2 C4 6 4 10 4 14 C3.01 14 2.02 14 1 14 C1 13.01 1 12.02 1 11 C-3.29 11 -7.58 11 -12 11 C-12 9.35 -12 7.7 -12 6 C-11.67 6.99 -11.34 7.98 -11 9 C-10.34 9 -9.68 9 -9 9 C-9 8.01 -9 7.02 -9 6 C-5.7 5.67 -2.4 5.34 1 5 C0.67 3.35 0.34 1.7 0 0 Z " fill="#EFEFEF" transform="translate(28,795)"/>
<path d="M0 0 C0 0.99 0 1.98 0 3 C-0.99 3.33 -1.98 3.66 -3 4 C-3.33 5.65 -3.66 7.3 -4 9 C-2.68 9 -1.36 9 0 9 C0 9.99 0 10.98 0 12 C-0.67546875 11.79503906 -1.3509375 11.59007812 -2.046875 11.37890625 C-2.93890625 11.10949219 -3.8309375 10.84007812 -4.75 10.5625 C-5.63171875 10.29566406 -6.5134375 10.02882813 -7.421875 9.75390625 C-9.60565835 9.11531506 -11.78835498 8.53224167 -14 8 C-14 6.68 -14 5.36 -14 4 C-12.0429132 3.32968281 -10.08428887 2.66385317 -8.125 2 C-7.03445312 1.62875 -5.94390625 1.2575 -4.8203125 0.875 C-2 0 -2 0 0 0 Z " fill="#545454" transform="translate(29,973)"/>
<path d="M0 0 C3.00716275 2.33890436 4.45838092 4.20866644 5 8 C4.01 7.67 3.02 7.34 2 7 C1.67 6.34 1.34 5.68 1 5 C0.01 6.32 -0.98 7.64 -2 9 C-6.875 8.125 -6.875 8.125 -8 7 C-8.25 4.5625 -8.25 4.5625 -8 2 C-4.75173326 -0.16551116 -3.76905843 -0.55156953 0 0 Z " fill="#545454" transform="translate(24,765)"/>
<path d="M0 0 C3 0.25 3 0.25 5 2.25 C5.25 4.75 5.25 4.75 5 7.25 C3 9.25 3 9.25 0 9.5 C-3 9.25 -3 9.25 -5 7.25 C-5.25 4.75 -5.25 4.75 -5 2.25 C-3 0.25 -3 0.25 0 0 Z " fill="#585858" transform="translate(24,951.75)"/>
<path d="M0 0 C3 0.25 3 0.25 5 2.25 C5.25 4.75 5.25 4.75 5 7.25 C3 9.25 3 9.25 0 9.5 C-3 9.25 -3 9.25 -5 7.25 C-5.25 4.75 -5.25 4.75 -5 2.25 C-3 0.25 -3 0.25 0 0 Z " fill="#555555" transform="translate(24,898.75)"/>
<path d="M0 0 C1.65 0.99 3.3 1.98 5 3 C6.65 2.01 8.3 1.02 10 0 C9.125 3.875 9.125 3.875 8 5 C8.66 5.33 9.32 5.66 10 6 C10 6.99 10 7.98 10 9 C5.05 9 0.1 9 -5 9 C-5 8.01 -5 7.02 -5 6 C-1.535 5.505 -1.535 5.505 2 5 C1.34 4.34 0.68 3.68 0 3 C0 2.01 0 1.02 0 0 Z " fill="#5F5F5F" transform="translate(19,879)"/>
<path d="M0 0 C6.72 0.72 6.72 0.72 8 2 C8.07226502 3.85287502 8.0838122 5.70833878 8.0625 7.5625 C8.05347656 8.57441406 8.04445313 9.58632813 8.03515625 10.62890625 C8.02355469 11.41136719 8.01195312 12.19382812 8 13 C7.01 12.34 6.02 11.68 5 11 C5 10.34 5 9.68 5 9 C2.03 8.505 2.03 8.505 -1 8 C-1.04241723 5.66705225 -1.04092937 3.33297433 -1 1 C-0.67 0.67 -0.34 0.34 0 0 Z " fill="#0D0D0D" transform="translate(474,768)"/>
<path d="M0 0 C0 0.99 0 1.98 0 3 C-0.99 3 -1.98 3 -3 3 C-3 4.65 -3 6.3 -3 8 C-6.93370357 7.43804235 -9.83175607 6.44407389 -13 4 C-13 2.68 -13 1.36 -13 0 C-4.57142857 -1.28571429 -4.57142857 -1.28571429 0 0 Z " fill="#565656" transform="translate(29,824)"/>
<path d="M0 0 C0.66 0.66 1.32 1.32 2 2 C4.21072977 2.24253813 4.21072977 2.24253813 6.625 2.125 C7.44226563 2.10695313 8.25953125 2.08890625 9.1015625 2.0703125 C9.72804688 2.04710937 10.35453125 2.02390625 11 2 C12.90608098 5.21182149 13.22266247 7.53882603 13.125 11.25 C13.10695313 12.14203125 13.08890625 13.0340625 13.0703125 13.953125 C13.03550781 14.96632813 13.03550781 14.96632813 13 16 C9.71669856 13.07651242 9.04133067 10.24542505 8 6 C3.85906302 5.79029441 3.85906302 5.79029441 0 7 C0 4.69 0 2.38 0 0 Z " fill="#E8E8E8" transform="translate(19,894)"/>
<path d="M0 0 C1 1 1 1 1.1875 3.4375 C1 6 1 6 -1 8 C-2.32 8 -3.64 8 -5 8 C-5 7.34 -5 6.68 -5 6 C-4.01 5.67 -3.02 5.34 -2 5 C-1.67 4.01 -1.34 3.02 -1 2 C-2.32 2 -3.64 2 -5 2 C-5.33 2.99 -5.66 3.98 -6 5 C-6.33 4.01 -6.66 3.02 -7 2 C-7.99 2.495 -7.99 2.495 -9 3 C-9 3.66 -9 4.32 -9 5 C-8.34 5.33 -7.68 5.66 -7 6 C-7 6.66 -7 7.32 -7 8 C-10.875 7.125 -10.875 7.125 -12 6 C-12.04063832 4.33382885 -12.042721 2.66611905 -12 1 C-11.236875 0.855625 -10.47375 0.71125 -9.6875 0.5625 C-2.7 -0.9 -2.7 -0.9 0 0 Z " fill="#545454" transform="translate(28,835)"/>
<path d="M0 0 C1 1 1 1 1.1875 3.4375 C1 6 1 6 -1 8 C-2.32 8 -3.64 8 -5 8 C-5 7.34 -5 6.68 -5 6 C-4.01 5.67 -3.02 5.34 -2 5 C-1.67 4.01 -1.34 3.02 -1 2 C-2.32 2 -3.64 2 -5 2 C-5.33 2.99 -5.66 3.98 -6 5 C-6.33 4.01 -6.66 3.02 -7 2 C-7.99 2.495 -7.99 2.495 -9 3 C-9 3.66 -9 4.32 -9 5 C-8.34 5.33 -7.68 5.66 -7 6 C-7 6.66 -7 7.32 -7 8 C-10.875 7.125 -10.875 7.125 -12 6 C-12.04063832 4.33382885 -12.042721 2.66611905 -12 1 C-11.236875 0.855625 -10.47375 0.71125 -9.6875 0.5625 C-2.7 -0.9 -2.7 -0.9 0 0 Z " fill="#565656" transform="translate(28,788)"/>
<path d="M0 0 C0.66 0 1.32 0 2 0 C2.103125 0.94875 2.20625 1.8975 2.3125 2.875 C2.68539295 6.29107501 2.68539295 6.29107501 6 8 C6.1875 11.125 6.1875 11.125 6 14 C4.35 14.66 2.7 15.32 1 16 C1.33 13.69 1.66 11.38 2 9 C-1.01031744 8.06576355 -1.86650268 7.95550089 -5 9 C-5.99 8.34 -6.98 7.68 -8 7 C-6.8125 5.4375 -6.8125 5.4375 -5 4 C-2.3125 4.3125 -2.3125 4.3125 0 5 C0 3.35 0 1.7 0 0 Z " fill="#E2E2E2" transform="translate(26,827)"/>
<path d="M0 0 C4.83256305 0.41421969 6.82679218 2.46413986 10 6 C9.01 7.485 9.01 7.485 8 9 C7.34 9 6.68 9 6 9 C6 8.34 6 7.68 6 7 C4.68 7.33 3.36 7.66 2 8 C2 7.34 2 6.68 2 6 C0.35 6 -1.3 6 -3 6 C-2 4 -1 2 0 0 Z " fill="#DFDFDF" transform="translate(19,848)"/>
<path d="M0 0 C1.2065625 0.0309375 1.2065625 0.0309375 2.4375 0.0625 C2.7675 1.7125 3.0975 3.3625 3.4375 5.0625 C3.7675 3.7425 4.0975 2.4225 4.4375 1.0625 C5.0975 1.0625 5.7575 1.0625 6.4375 1.0625 C6.5625 3.4375 6.5625 3.4375 6.4375 6.0625 C4.4375 8.0625 4.4375 8.0625 1.4375 8.3125 C-1.5625 8.0625 -1.5625 8.0625 -3.5625 6.0625 C-3.75 3.5 -3.75 3.5 -3.5625 1.0625 C-2.5625 0.0625 -2.5625 0.0625 0 0 Z " fill="#515151" transform="translate(22.5625,930.9375)"/>
<path d="M0 0 C0 0.66 0 1.32 0 2 C1.32 1.67 2.64 1.34 4 1 C4 1.66 4 2.32 4 3 C4.99 3 5.98 3 7 3 C7 3.66 7 4.32 7 5 C6.01 5.495 6.01 5.495 5 6 C5.66 6.66 6.32 7.32 7 8 C5.35 8.33 3.7 8.66 2 9 C2 8.34 2 7.68 2 7 C0.68 7.33 -0.64 7.66 -2 8 C-2 7.34 -2 6.68 -2 6 C-2.66 5.67 -3.32 5.34 -4 5 C-3.34 5 -2.68 5 -2 5 C-2 4.34 -2 3.68 -2 3 C-2.99 3 -3.98 3 -5 3 C-5 2.34 -5 1.68 -5 1 C-2 0 -2 0 0 0 Z " fill="#595959" transform="translate(21,854)"/>
<path d="M0 0 C0.99 0.33 1.98 0.66 3 1 C3 1.66 3 2.32 3 3 C2.34 3 1.68 3 1 3 C1.0928125 4.5778125 1.0928125 4.5778125 1.1875 6.1875 C0.992078 10.16108064 0.4326186 11.91244563 -2 15 C-2.66 15 -3.32 15 -4 15 C-4.99844215 10.00778927 -5.17036684 6.6662887 -3 2 C-2.01 1.34 -1.02 0.68 0 0 Z " fill="#111111" transform="translate(328,578)"/>
<path d="M0 0 C4.70588235 0.70588235 4.70588235 0.70588235 6 2 C6.04080783 3.99958364 6.04254356 6.00045254 6 8 C5.01 7.67 4.02 7.34 3 7 C3 5.68 3 4.36 3 3 C2.34 2.67 1.68 2.34 1 2 C0.773125 2.804375 0.54625 3.60875 0.3125 4.4375 C-1 7 -1 7 -3.5 7.9375 C-4.325 7.958125 -5.15 7.97875 -6 8 C-8 6 -8 6 -8.125 3.375 C-8.08375 2.59125 -8.0425 1.8075 -8 1 C-7.34 1 -6.68 1 -6 1 C-5.814375 1.9590625 -5.814375 1.9590625 -5.625 2.9375 C-5.315625 3.9584375 -5.315625 3.9584375 -5 5 C-4.34 5.33 -3.68 5.66 -3 6 C-2.690625 5.195625 -2.38125 4.39125 -2.0625 3.5625 C-1 1 -1 1 0 0 Z " fill="#515151" transform="translate(23,916)"/>
<path d="M0 0 C3.44165321 0.35299007 5.06872538 1.04581692 8 3 C8.33 2.01 8.66 1.02 9 0 C9.66 0 10.32 0 11 0 C11 2.64 11 5.28 11 8 C8.53199953 6.84826645 6.95216435 5.95216435 5 4 C3.68 4 2.36 4 1 4 C1 5.32 1 6.64 1 8 C0.01 7.67 -0.98 7.34 -2 7 C-2.125 4.625 -2.125 4.625 -2 2 C-1.34 1.34 -0.68 0.68 0 0 Z " fill="#464646" transform="translate(18,845)"/>
<path d="M0 0 C-0.99 1.485 -0.99 1.485 -2 3 C-2.39013716 4.9896995 -2.73202649 6.99019869 -3 9 C-9.57142857 5 -9.57142857 5 -11 1 C-7.26562152 0.12132271 -3.83225427 -0.08912219 0 0 Z " fill="#141414" transform="translate(296,438)"/>
<path d="M0 0 C1.98 0 3.96 0 6 0 C5.01 0.33 4.02 0.66 3 1 C3.33 1.99 3.66 2.98 4 4 C5.65 4 7.3 4 9 4 C8.01 5.485 8.01 5.485 7 7 C4.90625 7.36328125 4.90625 7.36328125 2.5 7.3125 C1.7059375 7.30863281 0.911875 7.30476562 0.09375 7.30078125 C-2 7 -2 7 -4 5 C-3.625 2.875 -3.625 2.875 -3 1 C-2.67 1.99 -2.34 2.98 -2 4 C-1.01 4 -0.02 4 1 4 C0.67 2.68 0.34 1.36 0 0 Z " fill="#555555" transform="translate(20,814)"/>
<path d="M0 0 C0.99 0.99 1.98 1.98 3 3 C1.4375 5.5 1.4375 5.5 -1 8 C-4.75 8.3125 -4.75 8.3125 -8 8 C-7.01 6.02 -6.02 4.04 -5 2 C-3.68 2.33 -2.36 2.66 -1 3 C-0.67 2.01 -0.34 1.02 0 0 Z " fill="#151515" transform="translate(326,253)"/>
<path d="M0 0 C0.66 0 1.32 0 2 0 C2 0.66 2 1.32 2 2 C3.98 2 5.96 2 8 2 C8 1.34 8 0.68 8 0 C8.66 0 9.32 0 10 0 C9.67 1.65 9.34 3.3 9 5 C4.545 5.495 4.545 5.495 0 6 C0 5.34 0 4.68 0 4 C-0.99 4 -1.98 4 -3 4 C-3 3.34 -3 2.68 -3 2 C-2.01 2 -1.02 2 0 2 C0 1.34 0 0.68 0 0 Z " fill="#686868" transform="translate(19,909)"/>
<path d="M0 0 C1.42098605 2.66434884 1.19767261 4.90991085 1 7.875 C0.34 7.545 -0.32 7.215 -1 6.875 C-1.33 5.555 -1.66 4.235 -2 2.875 C-6.29 2.545 -10.58 2.215 -15 1.875 C-14 -0.125 -14 -0.125 -12.4375 -0.75 C-3.71812081 -2.09144295 -3.71812081 -2.09144295 0 0 Z " fill="#DEDEDE" transform="translate(30,961.125)"/>
<path d="M0 0 C8.25597814 0.34616261 8.25597814 0.34616261 11.0625 2.8125 C12 5 12 5 12 9 C11.01 8.67 10.02 8.34 9 8 C8.67 6.68 8.34 5.36 8 4 C5.03 3.67 2.06 3.34 -1 3 C-0.67 2.01 -0.34 1.02 0 0 Z " fill="#E1E1E1" transform="translate(19,763)"/>
<path d="M0 0 C1.2065625 0.0309375 1.2065625 0.0309375 2.4375 0.0625 C2.1075 1.0525 1.7775 2.0425 1.4375 3.0625 C0.4475 3.0625 -0.5425 3.0625 -1.5625 3.0625 C-1.8925 4.3825 -2.2225 5.7025 -2.5625 7.0625 C-0.5825 7.0625 1.3975 7.0625 3.4375 7.0625 C3.4375 7.3925 3.4375 7.7225 3.4375 8.0625 C-0.8525 8.0625 -5.1425 8.0625 -9.5625 8.0625 C-9.5625 7.4025 -9.5625 6.7425 -9.5625 6.0625 C-7.9125 6.0625 -6.2625 6.0625 -4.5625 6.0625 C-4.418125 5.258125 -4.27375 4.45375 -4.125 3.625 C-3.347189 0.08163876 -3.347189 0.08163876 0 0 Z " fill="#515151" transform="translate(23.5625,940.9375)"/>
<path d="M0 0 C1.32 0.33 2.64 0.66 4 1 C3.625 3.4375 3.625 3.4375 3 6 C2.01 6.495 2.01 6.495 1 7 C1 5.68 1 4.36 1 3 C-1.475 4.485 -1.475 4.485 -4 6 C-4.99 5.01 -5.98 4.02 -7 3 C-7.99 3.495 -7.99 3.495 -9 4 C-9 3.01 -9 2.02 -9 1 C-6.03 1.33 -3.06 1.66 0 2 C0 1.34 0 0.68 0 0 Z " fill="#E3E3E3" transform="translate(27,877)"/>
<path d="M0 0 C0.66 0 1.32 0 2 0 C1.67 1.32 1.34 2.64 1 4 C-0.76774419 4.53122363 -2.53934083 5.04964073 -4.3125 5.5625 C-5.29863281 5.85253906 -6.28476562 6.14257812 -7.30078125 6.44140625 C-10 7 -10 7 -13 6 C-7.81454918 1.06147541 -7.81454918 1.06147541 -3.6875 0.75 C-2.3571875 0.87375 -2.3571875 0.87375 -1 1 C-0.67 0.67 -0.34 0.34 0 0 Z " fill="#E0E0E0" transform="translate(28,970)"/>
<path d="M0 0 C0.6875 1.75 0.6875 1.75 1 4 C-0.4375 6.25 -0.4375 6.25 -2 8 C-2 7.34 -2 6.68 -2 6 C-2.99 5.67 -3.98 5.34 -5 5 C-5.33 3.35 -5.66 1.7 -6 0 C-3.50907189 -1.24546405 -2.58919267 -0.7767578 0 0 Z " fill="#070707" transform="translate(322,594)"/>
<path d="M0 0 C2.625 0.9375 2.625 0.9375 5 2 C5 3.65 5 5.3 5 7 C4.01 7.33 3.02 7.66 2 8 C-0.1875 6.8125 -0.1875 6.8125 -2 5 C-2 3.68 -2 2.36 -2 1 C-1.34 0.67 -0.68 0.34 0 0 Z " fill="#020202" transform="translate(542,196)"/>
<path d="M0 0 C0.33 0.99 0.66 1.98 1 3 C0.01 3.33 -0.98 3.66 -2 4 C-2 4.66 -2 5.32 -2 6 C-3.98 6 -5.96 6 -8 6 C-8.66 7.32 -9.32 8.64 -10 10 C-9.25 3.25 -9.25 3.25 -7 1 C-4.60938484 0.40234621 -2.46474039 0 0 0 Z " fill="#E4E4E4" transform="translate(25,772)"/>
<path d="M0 0 C2.31 0.33 4.62 0.66 7 1 C7 1.66 7 2.32 7 3 C4.69 3.66 2.38 4.32 0 5 C-0.33 6.32 -0.66 7.64 -1 9 C-2.65 9 -4.3 9 -6 9 C-6.33 9.66 -6.66 10.32 -7 11 C-6.67 9.68 -6.34 8.36 -6 7 C-5.38125 6.95875 -4.7625 6.9175 -4.125 6.875 C-3.42375 6.58625 -2.7225 6.2975 -2 6 C-0.6954344 3.00384054 -0.6954344 3.00384054 0 0 Z " fill="#E4E4E4" transform="translate(20,938)"/>
<path d="M0 0 C2.1519437 3.22791555 2.20086443 4.28400809 2 8 C1.01 8.33 0.02 8.66 -1 9 C-0.34 10.98 0.32 12.96 1 15 C0.01 14.67 -0.98 14.34 -2 14 C-1.67 11.03 -1.34 8.06 -1 5 C-1.99 4.67 -2.98 4.34 -4 4 C-2.68 2.68 -1.36 1.36 0 0 Z " fill="#EBEBEB" transform="translate(30,819)"/>
<path d="M0 0 C2.64 0 5.28 0 8 0 C8.125 2.875 8.125 2.875 8 6 C6 8 6 8 2.875 8.125 C1.451875 8.063125 1.451875 8.063125 0 8 C-0.33 6.68 -0.66 5.36 -1 4 C1.97 4.495 1.97 4.495 5 5 C5.33 3.68 5.66 2.36 6 1 C4.02 1 2.04 1 0 1 C0 0.67 0 0.34 0 0 Z " fill="#515151" transform="translate(21,964)"/>
<path d="M0 0 C0.66 0 1.32 0 2 0 C2.33 1.32 2.66 2.64 3 4 C4.32 4.33 5.64 4.66 7 5 C7.33 3.35 7.66 1.7 8 0 C8.66 0 9.32 0 10 0 C10.125 2.375 10.125 2.375 10 5 C8 7 8 7 5 7.3125 C3.515 7.1578125 3.515 7.1578125 2 7 C0 4 0 4 0 0 Z " fill="#535353" transform="translate(19,890)"/>
<path d="M0 0 C0.66 0.33 1.32 0.66 2 1 C-0.45091043 3.68433048 -2.28241384 4.91789741 -6.04296875 5.09765625 C-6.75066406 5.08605469 -7.45835938 5.07445312 -8.1875 5.0625 C-10.0746875 5.0315625 -10.0746875 5.0315625 -12 5 C-11.34 3.68 -10.68 2.36 -10 1 C-9.36191406 1.01160156 -8.72382813 1.02320313 -8.06640625 1.03515625 C-7.24011719 1.04417969 -6.41382813 1.05320312 -5.5625 1.0625 C-4.32693359 1.07990234 -4.32693359 1.07990234 -3.06640625 1.09765625 C-1.00836062 1.23267348 -1.00836062 1.23267348 0 0 Z " fill="#DDDDDD" transform="translate(28,819)"/>
<path d="M0 0 C-0.99 0.495 -0.99 0.495 -2 1 C-2 2.65 -2 4.3 -2 6 C-6.875 7 -6.875 7 -8 7 C-8.1875 4.625 -8.1875 4.625 -8 2 C-4.77208445 -0.1519437 -3.71599191 -0.20086443 0 0 Z " fill="#8F8F8F" transform="translate(24,765)"/>
<path d="M0 0 C0.99 0 1.98 0 3 0 C3 0.66 3 1.32 3 2 C3.66 2 4.32 2 5 2 C4.67 4.31 4.34 6.62 4 9 C3.01 8.67 2.02 8.34 1 8 C1 6.68 1 5.36 1 4 C0.34 4 -0.32 4 -1 4 C-0.67 2.68 -0.34 1.36 0 0 Z " fill="#D3D3D3" transform="translate(16,913)"/>
<path d="M0 0 C2.25 1.9375 2.25 1.9375 4 4 C3.01 4.495 3.01 4.495 2 5 C1.34444881 7.52733235 1.34444881 7.52733235 1 10 C0.67 10 0.34 10 0 10 C0 8.02 0 6.04 0 4 C-1.32 4 -2.64 4 -4 4 C-4 3.01 -4 2.02 -4 1 C-2.25 0.25 -2.25 0.25 0 0 Z " fill="#D8D8D8" transform="translate(25,927)"/>
<path d="M0 0 C4.29 0 8.58 0 13 0 C13 0.66 13 1.32 13 2 C9.7 2 6.4 2 3 2 C3 2.99 3 3.98 3 5 C2.34 5 1.68 5 1 5 C0.67 3.35 0.34 1.7 0 0 Z " fill="#4B4B4B" transform="translate(16,806)"/>
<path d="M0 0 C4.29 0 8.58 0 13 0 C13 0.66 13 1.32 13 2 C9.7 2 6.4 2 3 2 C3 2.99 3 3.98 3 5 C2.34 5 1.68 5 1 5 C0.67 3.35 0.34 1.7 0 0 Z " fill="#4B4B4B" transform="translate(16,799)"/>
<path d="M0 0 C0.66 0 1.32 0 2 0 C2.33 0.99 2.66 1.98 3 3 C3.66 3.33 4.32 3.66 5 4 C5 5.65 5 7.3 5 9 C4.34 9 3.68 9 3 9 C3 8.01 3 7.02 3 6 C1.68 6 0.36 6 -1 6 C-1.042721 4.33388095 -1.04063832 2.66617115 -1 1 C-0.67 0.67 -0.34 0.34 0 0 Z " fill="#DEDEDE" transform="translate(26,976)"/>
<path d="M0 0 C0.66 0.33 1.32 0.66 2 1 C6.14503661 1.24787017 6.14503661 1.24787017 10 0 C9.34 1.65 8.68 3.3 8 5 C6.02 5 4.04 5 2 5 C2 4.34 2 3.68 2 3 C1.34 3 0.68 3 0 3 C-0.33 3.66 -0.66 4.32 -1 5 C-0.67 3.35 -0.34 1.7 0 0 Z " fill="#DBDBDB" transform="translate(19,906)"/>
<path d="M0 0 C0.66 0 1.32 0 2 0 C2.33 0.66 2.66 1.32 3 2 C3.33 1.34 3.66 0.68 4 0 C5.32 0 6.64 0 8 0 C7.67 1.32 7.34 2.64 7 4 C4.6875 4.625 4.6875 4.625 2 5 C1.01 4.34 0.02 3.68 -1 3 C-0.67 2.01 -0.34 1.02 0 0 Z " fill="#BABABA" transform="translate(19,837)"/>
<path d="M0 0 C0.66 0 1.32 0 2 0 C2.33 0.66 2.66 1.32 3 2 C3.33 1.34 3.66 0.68 4 0 C5.32 0 6.64 0 8 0 C7.67 1.32 7.34 2.64 7 4 C4.6875 4.625 4.6875 4.625 2 5 C1.01 4.34 0.02 3.68 -1 3 C-0.67 2.01 -0.34 1.02 0 0 Z " fill="#BABABA" transform="translate(19,790)"/>
<path d="M0 0 C4.875 0.875 4.875 0.875 6 2 C6.04063832 3.66617115 6.042721 5.33388095 6 7 C3 7 3 7 0 6 C0.185625 5.38125 0.37125 4.7625 0.5625 4.125 C1.23686176 1.95839822 1.23686176 1.95839822 0 0 Z " fill="#9E9E9E" transform="translate(23,776)"/>
<path d="M0 0 C1.2065625 0.0309375 1.2065625 0.0309375 2.4375 0.0625 C2.4375 2.0425 2.4375 4.0225 2.4375 6.0625 C1.81875 5.876875 1.2 5.69125 0.5625 5.5 C-1.60410178 4.82563824 -1.60410178 4.82563824 -3.5625 6.0625 C-3.605221 4.39638095 -3.60313832 2.72867115 -3.5625 1.0625 C-2.5625 0.0625 -2.5625 0.0625 0 0 Z " fill="#7E7E7E" transform="translate(22.5625,930.9375)"/>
<path d="M0 0 C0.33 0.99 0.66 1.98 1 3 C1.66 3 2.32 3 3 3 C3 2.01 3 1.02 3 0 C6.3 0 9.6 0 13 0 C13 0.33 13 0.66 13 1 C10.69 1.33 8.38 1.66 6 2 C5.67 2.99 5.34 3.98 5 5 C3.35 5 1.7 5 0 5 C0 3.35 0 1.7 0 0 Z " fill="#C5C5C5" transform="translate(16,801)"/>
<path d="M0 0 C3.125 -0.1875 3.125 -0.1875 6 0 C6.66 1.65 7.32 3.3 8 5 C7.01 5.495 7.01 5.495 6 6 C6 5.01 6 4.02 6 3 C3.36 3 0.72 3 -2 3 C-1.34 2.01 -0.68 1.02 0 0 Z " fill="#E0E0E0" transform="translate(23,803)"/>
<path d="M0 0 C1.65 0.33 3.3 0.66 5 1 C4.67 2.32 4.34 3.64 4 5 C2.35 4.67 0.7 4.34 -1 4 C-0.67 2.68 -0.34 1.36 0 0 Z " fill="#CFCFCF" transform="translate(22,954)"/>
<path d="M0 0 C1.65 0.33 3.3 0.66 5 1 C4.67 2.32 4.34 3.64 4 5 C2.35 4.67 0.7 4.34 -1 4 C-0.67 2.68 -0.34 1.36 0 0 Z " fill="#CDCDCD" transform="translate(22,901)"/>
<path d="M0 0 C0 1.32 0 2.64 0 4 C-0.99 4.33 -1.98 4.66 -3 5 C-5.6875 3.0625 -5.6875 3.0625 -8 1 C-5.29120665 -0.35439668 -2.99066732 -0.06501451 0 0 Z " fill="#8B8B8B" transform="translate(24,826)"/>
<path d="M0 0 C-1.15173355 2.46800047 -2.04783565 4.04783565 -4 6 C-4.99 4.02 -5.98 2.04 -7 0 C-3.86650268 -1.04449911 -3.01031744 -0.93423645 0 0 Z " fill="#191919" transform="translate(682,586)"/>
<path d="M0 0 C0.33 0 0.66 0 1 0 C1.25 3.3125 1.25 3.3125 1 7 C-1 8.9375 -1 8.9375 -3 10 C-3.66 9.67 -4.32 9.34 -5 9 C-3.35 6.03 -1.7 3.06 0 0 Z " fill="#1A1A1A" transform="translate(317,262)"/>
<path d="M0 0 C0 1.32 0 2.64 0 4 C-2.97 3.505 -2.97 3.505 -6 3 C-6 2.34 -6 1.68 -6 1 C-6.66 0.67 -7.32 0.34 -8 0 C-4.71023192 -1.09658936 -3.28696233 -0.79953138 0 0 Z " fill="#929292" transform="translate(23,977)"/>
<path d="M0 0 C2.3431213 0.25561323 4.67843403 0.59270772 7 1 C7.33 1.66 7.66 2.32 8 3 C6.2421875 3.65104167 4.484375 4.30208333 2.7265625 4.953125 C0.51314919 6.08545005 0.51314919 6.08545005 -1 10 C-0.67 6.7 -0.34 3.4 0 0 Z " fill="#E8E8E8" transform="translate(16,783)"/>
<path d="M0 0 C1.32 0.33 2.64 0.66 4 1 C3.67 3.31 3.34 5.62 3 8 C2.34 8 1.68 8 1 8 C0.67 5.36 0.34 2.72 0 0 Z " fill="#E7E7E7" transform="translate(28,929)"/>
<path d="M0 0 C0.99 0 1.98 0 3 0 C3 0.66 3 1.32 3 2 C3.66 2 4.32 2 5 2 C5.33 1.34 5.66 0.68 6 0 C5.67 1.65 5.34 3.3 5 5 C3.35 4.67 1.7 4.34 0 4 C0 2.68 0 1.36 0 0 Z " fill="#CECECE" transform="translate(21,890)"/>
<path d="M0 0 C0 0.66 0 1.32 0 2 C0.99 1.67 1.98 1.34 3 1 C2.67 2.65 2.34 4.3 2 6 C1.01 5.67 0.02 5.34 -1 5 C-1 4.34 -1 3.68 -1 3 C-2.32 3 -3.64 3 -5 3 C-5 2.34 -5 1.68 -5 1 C-2 0 -2 0 0 0 Z " fill="#7D7D7D" transform="translate(21,854)"/>
<path d="M0 0 C-2.52771621 3.08943092 -5.1444775 4.11644276 -9 5 C-9.99 4.34 -10.98 3.68 -12 3 C-10.3789897 2.30314502 -8.75303934 1.61777139 -7.125 0.9375 C-6.22007813 0.55464844 -5.31515625 0.17179688 -4.3828125 -0.22265625 C-2 -1 -2 -1 0 0 Z " fill="#D4D4D4" transform="translate(30,784)"/>
<path d="M0 0 C1.98 0 3.96 0 6 0 C5.67 1.32 5.34 2.64 5 4 C3.35 3.67 1.7 3.34 0 3 C0 2.01 0 1.02 0 0 Z " fill="#D2D2D2" transform="translate(21,966)"/>
<path d="M0 0 C0.66 0 1.32 0 2 0 C2 0.99 2 1.98 2 3 C3.32 3.33 4.64 3.66 6 4 C4.68 4 3.36 4 2 4 C2 4.66 2 5.32 2 6 C1.34 6 0.68 6 0 6 C0 5.34 0 4.68 0 4 C-0.99 4 -1.98 4 -3 4 C-3 3.34 -3 2.68 -3 2 C-2.01 2 -1.02 2 0 2 C0 1.34 0 0.68 0 0 Z " fill="#494949" transform="translate(19,909)"/>
<path d="M0 0 C0.66 0.33 1.32 0.66 2 1 C1.6875 2.875 1.6875 2.875 1 5 C0.01 5.66 -0.98 6.32 -2 7 C-2.66 5.35 -3.32 3.7 -4 2 C-2.125 0.9375 -2.125 0.9375 0 0 Z " fill="#161616" transform="translate(131,618)"/>
<path d="M0 0 C0.99 0.33 1.98 0.66 3 1 C2.34 1.66 1.68 2.32 1 3 C0.83318891 6.08347826 0.83318891 6.08347826 1 9 C0.01 8.34 -0.98 7.68 -2 7 C-2.3125 4.5 -2.3125 4.5 -2 2 C-1.34 1.34 -0.68 0.68 0 0 Z " fill="#5C5C5C" transform="translate(21,899)"/>
<path d="M0 0 C1.9375 0.3125 1.9375 0.3125 4 1 C4.33 1.99 4.66 2.98 5 4 C3.02 4 1.04 4 -1 4 C-0.67 2.68 -0.34 1.36 0 0 Z " fill="#D5D5D5" transform="translate(22,943)"/>
<path d="M0 0 C0.66 0 1.32 0 2 0 C2 0.99 2 1.98 2 3 C1.34 3 0.68 3 0 3 C-0.33 6.63 -0.66 10.26 -1 14 C-1.33 14 -1.66 14 -2 14 C-2.1799928 8.78020872 -1.97094808 4.92737019 0 0 Z " fill="#EDEDED" transform="translate(16,908)"/>
<path d="M0 0 C2.125 0.375 2.125 0.375 4 1 C3.01 1 2.02 1 1 1 C1 3.31 1 5.62 1 8 C0.01 7.67 -0.98 7.34 -2 7 C-2.125 4.625 -2.125 4.625 -2 2 C-1.34 1.34 -0.68 0.68 0 0 Z " fill="#636363" transform="translate(18,845)"/>
<path d="M0 0 C0.66 0.33 1.32 0.66 2 1 C2 2.32 2 3.64 2 5 C2.66 5.33 3.32 5.66 4 6 C4 6.66 4 7.32 4 8 C0.125 7.125 0.125 7.125 -1 6 C-1.125 3.5 -1.125 3.5 -1 1 C-0.67 0.67 -0.34 0.34 0 0 Z " fill="#5C5C5C" transform="translate(17,835)"/>
<path d="M0 0 C5.75 -0.125 5.75 -0.125 8 1 C7.67 1.99 7.34 2.98 7 4 C4.69 3.67 2.38 3.34 0 3 C0 2.01 0 1.02 0 0 Z " fill="#DBDBDB" transform="translate(19,763)"/>
<path d="M0 0 C0.94875 0.165 1.8975 0.33 2.875 0.5 C5.80168901 1.0526635 5.80168901 1.0526635 8 1 C7.67 1.99 7.34 2.98 7 4 C5.02 4 3.04 4 1 4 C0.67 2.68 0.34 1.36 0 0 Z " fill="#4E4E4E" transform="translate(20,957)"/>
<path d="M0 0 C0.66 0.66 1.32 1.32 2 2 C4.06874034 2.6425235 4.06874034 2.6425235 6 3 C6 3.66 6 4.32 6 5 C4.02 5.66 2.04 6.32 0 7 C0 4.69 0 2.38 0 0 Z " fill="#DFDFDF" transform="translate(19,894)"/>
<path d="M0 0 C1.65 0.33 3.3 0.66 5 1 C4.195625 1.556875 3.39125 2.11375 2.5625 2.6875 C-0.24228216 5.21864487 -0.69381595 6.32579134 -1 10 C-1.33 10 -1.66 10 -2 10 C-2.17942163 6.05272412 -2.09350689 3.4019487 0 0 Z " fill="#EAEAEA" transform="translate(17,842)"/>
<path d="M0 0 C1.65 0.33 3.3 0.66 5 1 C4.01 1.495 4.01 1.495 3 2 C2.67 2.99 2.34 3.98 2 5 C0.35 4.67 -1.3 4.34 -3 4 C-2.01 2.68 -1.02 1.36 0 0 Z " fill="#CDCDCD" transform="translate(21,831)"/>
<path d="M0 0 C1.32 0 2.64 0 4 0 C4 1.65 4 3.3 4 5 C3.01 5 2.02 5 1 5 C0.34 3.68 -0.32 2.36 -1 1 C-0.67 0.67 -0.34 0.34 0 0 Z " fill="#939393" transform="translate(17,777)"/>
<path d="M0 0 C2.0625 0.4375 2.0625 0.4375 4 1 C4 2.32 4 3.64 4 5 C3.01 5 2.02 5 1 5 C0.34 3.68 -0.32 2.36 -1 1 C-0.67 0.67 -0.34 0.34 0 0 Z " fill="#979797" transform="translate(17,813)"/>
<path d="M0 0 C1.32 0.99 2.64 1.98 4 3 C3.01 4.485 3.01 4.485 2 6 C1.34 6 0.68 6 0 6 C-1.125 2.25 -1.125 2.25 0 0 Z " fill="#D5D5D5" transform="translate(25,851)"/>
<path d="M0 0 C2.875 0.3125 2.875 0.3125 6 1 C6.66 1.99 7.32 2.98 8 4 C4.79604584 4 2.90600261 3.25664978 0 2 C0 1.34 0 0.68 0 0 Z " fill="#545454" transform="translate(19,846)"/>
<path d="M0 0 C0.66 0 1.32 0 2 0 C2.33 0.99 2.66 1.98 3 3 C2.01 3.33 1.02 3.66 0 4 C0 4.66 0 5.32 0 6 C-0.99 5.67 -1.98 5.34 -3 5 C-1.625 2.5 -1.625 2.5 0 0 Z " fill="#D7D7D7" transform="translate(23,772)"/>
</svg>
